<?xml version="1.0" encoding="UTF-8" standalone="no"?>
<svg
   width="607.04999pt"
   height="607.08301pt"
   viewBox="0 0 607.04999 607.08301"
   version="1.1"
   id="svg15"
   sodipodi:docname="logoAPP.svg"
   inkscape:version="1.3 (0e150ed6c4, 2023-07-21)"
   xmlns:inkscape="http://www.inkscape.org/namespaces/inkscape"
   xmlns:sodipodi="http://sodipodi.sourceforge.net/DTD/sodipodi-0.dtd"
   xmlns="http://www.w3.org/2000/svg"
   xmlns:svg="http://www.w3.org/2000/svg">
  <defs
     id="defs15" />
  <sodipodi:namedview
     id="namedview15"
     pagecolor="#ffffff"
     bordercolor="#000000"
     borderopacity="0.25"
     inkscape:showpageshadow="2"
     inkscape:pageopacity="0.0"
     inkscape:pagecheckerboard="0"
     inkscape:deskcolor="#d1d1d1"
     inkscape:document-units="pt"
     inkscape:zoom="0.8768624"
     inkscape:cx="760.66667"
     inkscape:cy="419.10795"
     inkscape:window-width="1920"
     inkscape:window-height="1017"
     inkscape:window-x="-8"
     inkscape:window-y="-8"
     inkscape:window-maximized="1"
     inkscape:current-layer="svg15" />
  <path
     fill="#ffe5cf"
     stroke="#ffe5cf"
     stroke-width="0.09375"
     opacity="1"
     d="m 281.52639,0.8441968 c 46.8,-3.4 94.3,4.1 137.6,22.0000002 63.1,25.9 116.7,73.7 149.7,133.300003 20.6,36.8 33.2,77.9 36.9,119.8 3.8,41.3 -0.9,83.4 -13.9,122.8 -20.4,62 -61.5,116.8 -115.1,154 -30.3,21.1 -64.4,36.7 -100.3,45.5 -48.7,12 -100.4,11.7 -148.9,-0.8 -67.4,-17.2 -128.100001,-58.6 -169.000001,-114.8 -25.1,-34.2 -42.9,-73.7 -51.7000001,-115.2 -9.5,-44.1 -9,-90.4 1.4,-134.3 16.3000001,-69.6 58.5000001,-132.6 116.2000011,-174.600003 45.6,-33.5 100.7,-53.8000002 157.1,-57.7000002 m 5.9,5.7 c -49.7,2.5 -98.6,17.8000002 -140.8,44.1000002 -51.700001,32.3 -93.400001,80.600003 -117.200001,136.800003 -29.4000001,69.2 -31.1000001,149.6 -4.8,220 22.6,61.1 66.2,114 121.400001,148.6 34.8,21.9 74.3,36.2 115,42 43.9,6.3 89.1,2.6 131.4,-10.5 32.8,-10.2 63.8,-26.2 91,-47.1 50.3,-38.2 88.2,-92.5 105.7,-153.3 12,-41.3 15.1,-85.3 8.6,-127.9 -6.1,-41.3 -21,-81.2 -43.6,-116.2 -33.4,-51.800003 -82.9,-93.100003 -140.2,-115.900003 -40,-15.9 -83.5,-23.0000002 -126.5,-20.6000002 z"
     id="path1" />
  <path
     fill="#ee7f7f"
     stroke="#ee7f7f"
     stroke-width="0.09375"
     opacity="1"
     d="m 287.42639,6.5441968 c 43,-2.4 86.5,4.7000002 126.5,20.6000002 57.3,22.8 106.8,64.1 140.2,115.900003 22.6,35 37.5,74.9 43.6,116.2 6.5,42.6 3.4,86.6 -8.6,127.9 -17.5,60.8 -55.4,115.1 -105.7,153.3 -27.2,20.9 -58.2,36.9 -91,47.1 -42.3,13.1 -87.5,16.8 -131.4,10.5 -40.7,-5.8 -80.2,-20.1 -115,-42 -55.200001,-34.6 -98.800001,-87.5 -121.400001,-148.6 -26.3000001,-70.4 -24.6000001,-150.8 4.8,-220 23.8,-56.2 65.5,-104.500003 117.200001,-136.800003 42.2,-26.3 91.1,-41.6000002 140.8,-44.1000002 m 20.7,62.5000002 c -3.1,4.5 -7.7,7.3 -12.2,10.1 -0.9,-0.5 -1.8,-0.9 -2.6,-1.4 0.6,-2.1 0.9,-4.3 2,-6.2 2.3,-2.1 4.9,-3.6 6.9,-6 -7.1,-0.5 -14.2,0.1 -21.3,0.7 -21.3,1.8 -42.5,6.1 -62.8,12.9 -54.8,17.9 -103.6,54.500003 -135.000001,103.000003 -19.8,30.3 -32.6,65.2 -36.7,101.3 -2.6,22.1 -1.5,44.5 1.6,66.6 0.5,2.6 3,4.4 3.7,7 -0.7,4.2 -2.5,8.1 -3.5,12.2 -2.3,9 -2.1,18.4 -1.6,27.5 1.7,15.3 7.4,29.8 14.5,43.2 8,14.7 17.9,28.5 30.8,39.3 5,4 10.700001,7.9 17.300001,8.5 4,0.5 6.9,-3.4 7.6,-6.9 1.5,-8 1.3,-16.2 2.4,-24.2 1.5,1.9 2.9,4 4,6.2 7.2,13 14.9,26 25.2,36.8 6.3,6.5 13.2,12.9 21.7,16.2 3.5,1.3 8.6,1.8 10.8,-1.9 3.2,-5.4 2.6,-12 2.2,-17.9 -1.6,-12.5 -5.3,-24.6 -7.1,-37.1 12.8,16.8 22.6,36.3 39.5,49.6 5.3,4 11.3,8.4 18.3,8.2 4.5,-0.5 6.3,-5.4 6.7,-9.3 1.4,-12.7 -2.2,-25.4 -6.7,-37.2 -6,-15.3 -14.4,-29.6 -24.8,-42.2 -3.3,-4.1 -7.3,-7.5 -10.3,-11.8 4.2,-1.7 9.2,-1.8 12.8,-4.6 3.2,-4.3 1.8,-10.1 0.7,-14.9 -3.8,-13 -11.4,-24.5 -19.9,-35 -11.2,-13.2 -24.2,-25.1 -39.2,-33.8 -8.6,-5.4 -18.1,-9.6 -28.2,-10.7 -2.1,-0.5 -4.8,-0.2 -6.5,-1.8 -2.3,-2.2 1.1,-5.9 3.7,-5.3 17.6,1.4 33.2,10.5 47.2,20.6 3.1,2.4 6,5.1 9.3,7.3 2,-2.5 3.9,-5 5.9,-7.5 20.9,-26.2 51,-44.4 83.6,-52 3.3,10.7 14.5,16.5 24.9,18.6 11.5,2 24.1,1.2 34.5,-4.6 5.6,-3 10.3,-8 12.3,-14.1 21.8,5.2 42.5,14.8 60.2,28.7 11.1,8.5 20.5,18.9 29,30 7.3,-5.8 14.8,-11.5 23,-16 14.2,-9 31.4,-12.5 48.1,-10.9 0,2 1,4.7 -1.3,5.8 -2.9,0.5 -5.9,0.3 -8.8,0.3 -9.6,-0.2 -19,2.2 -27.6,6.2 -15,7.4 -28.6,17.6 -40.2,29.7 -11.4,11.9 -21.5,25.3 -27.2,40.9 -1.8,5.6 -3.5,12.2 -1,17.9 3.1,3.9 8.8,3.5 13.1,5.3 -2.3,3.6 -5.5,6.3 -8.3,9.6 -7.5,8.7 -13.9,18.4 -19.3,28.5 -6.8,13.1 -12.3,27.1 -14,41.9 -0.3,5.9 -0.9,12.4 2.3,17.8 2.3,3.9 7.7,3 11.3,2 9.2,-3.6 16.6,-10.6 23.2,-17.8 10.5,-11.5 17.9,-25.5 27.6,-37.7 -2.1,12.9 -6,25.4 -7.1,38.4 -0.1,5.7 -0.4,12.7 4.2,17 5,2.3 10.9,0 15.3,-2.7 11,-6.8 19.6,-16.7 27,-27 6.7,-9 11.3,-19.3 17.7,-28.4 0.9,6.3 1.1,12.7 1.8,19.1 0.5,3.7 1.1,8.4 4.8,10.3 6.1,1.7 12.1,-1.3 17,-4.7 10.9,-7.6 19.6,-18 27,-29 9.6,-14.6 17.4,-30.7 21.2,-47.8 1.9,-8.1 1.7,-16.5 1.5,-24.8 -0.3,-8.2 -2.8,-16 -5.4,-23.7 5.9,-6.1 5.5,-14.9 6.6,-22.7 1.6,-11.8 1.2,-23.8 1.1,-35.7 -1.4,-26 -6.8,-51.8 -16.6,-75.9 -23.9,-59.8 -72.9,-108.4 -131.7,-134.300003 -16.4,-7.2 -33.4,-13.3 -51,-16.7 -0.3,0.4 -0.8,1.2 -1,1.6 3.2,2 7.7,3.4 8.5,7.6 1,5.3 -2.8,9.9 -6.7,12.9 -7.9,5.8 -17.5,8.900003 -27.1,10.000003 -2.4,0 -3.9,2 -5.3,3.6 -1.1,-2.6 -2.4,-5.1 -3.8,-7.6 0.3,-0.600003 0.9,-1.700003 1.2,-2.200003 10.4,-0.4 21.2,-2.7 29.9,-8.8 2.3,-1.7 5.1,-3.7 5,-6.9 -4.5,-2.5 -9.8,-2.9 -14.4,-5 3.5,-4.4 8,-8 10.4,-13.2 -1.5,-1 -3.1,-2.1 -5,-2.2 -7.1,-1 -13.9,1.6 -20.9,2.5 0.1,-3.4 0,-6.9 -0.1,-10.4 -10.6,-0.2 -19.3,7.6 -25.9,15.1 m -66.7,315.500003 c -1.9,0.4 -4.4,1.3 -4.6,3.6 -1.1,4.5 6.2,4.6 5.8,8.9 0.2,10.7 0.2,21.4 -0.7,32.1 -0.3,1.6 -0.1,3.9 -1.8,4.9 -1.4,1 -3,1.8 -4.3,3 -0.6,1.5 -0.9,3.6 0.5,4.7 2,2.4 5.3,2 8.1,1.9 9.6,-0.7 19.1,-0.1 28.6,0.1 9.2,0.1 18.9,-3.8 24.1,-11.7 5.5,-8.4 6.4,-19.3 3.8,-28.9 -2.2,-7.8 -8,-14.6 -15.8,-17.2 -9,-3 -18.7,-1.6 -28.1,-1.5 -5.2,0.2 -10.4,-0.5 -15.6,0.1 m 67,0.9 c -2.4,0.8 -4,3.5 -2.8,5.9 2.4,2.7 6.6,4.2 6.8,8.3 1.4,9.7 1.2,19.6 0.3,29.3 0,3.5 -3.3,5.2 -5.3,7.6 -0.8,1.9 -0.5,4.6 1.6,5.6 5,2.7 11.2,2.4 16.7,1.6 2.5,-0.6 6.1,-1.6 6.3,-4.7 0.5,-4 -4.8,-4.9 -5.6,-8.3 -1,-4.9 -1.1,-10.1 0.9,-14.7 3.9,0.5 6.5,3.8 9.4,6.3 7,6.3 14.1,12.6 21.1,18.9 2,1.9 5,3.9 7.8,2.4 2.3,-1.9 2.4,-5.3 2.8,-8 0.7,-12.2 -0.4,-24.5 0.6,-36.6 -0.2,-3.7 3.7,-5.1 5.8,-7.4 1.4,-2.2 0.3,-5.5 -2.2,-6.3 -4.7,-1.6 -9.8,-1.3 -14.7,-1.1 -2.8,0.2 -6.7,0.7 -7.4,4.1 -0.8,4.4 5.4,5.3 5.9,9.3 0.7,3.5 0.5,7.1 -0.5,10.5 -2.3,-0.3 -4.3,-1.5 -5.9,-3 -6.2,-5.5 -12.5,-10.9 -18.6,-16.4 -2.4,-2.1 -5,-4.4 -8.4,-4.5 -4.8,-0.3 -10,-0.5 -14.6,1.2 m -184.3,92.6 c -0.6,2.2 -1,4.5 -1.3,6.9 4.3,4 8.6,8 13.6,11.3 -4.1,-6.1 -8.3,-12.1 -12.3,-18.2 m 350.5,11.6 c -2.5,3.6 -5.4,6.8 -7.8,10.3 6.2,-4.1 11.7,-9.1 17.2,-14.2 -0.4,-2.6 -0.9,-5.2 -1.5,-7.8 -2.9,3.7 -5.2,7.9 -7.9,11.7 m -285.1,19.5 c -1,3.3 -1.7,6.8 -3.9,9.5 -2,2.7 -5.4,3.7 -8.4,4.9 23.1,12.3 48.1,20.9 73.8,26.3 -10.5,-4.6 -21.1,-8.9 -30.6,-15.2 -11.5,-7 -21.3,-16.2 -30.9,-25.5 m 186.1,32.4 c -4.8,2.7 -10.1,4.4 -14.8,7.2 8.1,-1.4 16,-3.8 23.8,-6.1 15.7,-5 31.1,-11 45.5,-19.1 -3,-1 -6.3,-1.6 -8.5,-4.1 -2.2,-2.5 -3.3,-5.8 -4.6,-8.9 -12,12.5 -25.9,23.3 -41.4,31 z"
     id="path2" />
  <path
     fill="#ffe5cf"
     stroke="#ffe5cf"
     stroke-width="0.09375"
     opacity="1"
     d="m 308.12639,69.044197 c 6.6,-7.5 15.3,-15.3 25.9,-15.1 0.1,3.5 0.2,7 0.1,10.4 7,-0.9 13.8,-3.5 20.9,-2.5 1.9,0.1 3.5,1.2 5,2.2 -2.4,5.2 -6.9,8.8 -10.4,13.2 4.6,2.1 9.9,2.5 14.4,5 0.1,3.2 -2.7,5.2 -5,6.9 -8.7,6.1 -19.5,8.4 -29.9,8.8 -0.3,0.5 -0.9,1.6 -1.2,2.200003 1.4,2.5 2.7,5 3.8,7.6 1.4,-1.6 2.9,-3.6 5.3,-3.6 9.6,-1.1 19.2,-4.200003 27.1,-10.000003 3.9,-3 7.7,-7.6 6.7,-12.9 -0.8,-4.2 -5.3,-5.6 -8.5,-7.6 0.2,-0.4 0.7,-1.2 1,-1.6 17.6,3.4 34.6,9.5 51,16.7 58.8,25.900003 107.8,74.500003 131.7,134.300003 9.8,24.1 15.2,49.9 16.6,75.9 0.1,11.9 0.5,23.9 -1.1,35.7 -1.1,7.8 -0.7,16.6 -6.6,22.7 2.6,7.7 5.1,15.5 5.4,23.7 0.2,8.3 0.4,16.7 -1.5,24.8 -3.8,17.1 -11.6,33.2 -21.2,47.8 -7.4,11 -16.1,21.4 -27,29 -4.9,3.4 -10.9,6.4 -17,4.7 -3.7,-1.9 -4.3,-6.6 -4.8,-10.3 -0.7,-6.4 -0.9,-12.8 -1.8,-19.1 -6.4,9.1 -11,19.4 -17.7,28.4 -7.4,10.3 -16,20.2 -27,27 -4.4,2.7 -10.3,5 -15.3,2.7 -4.6,-4.3 -4.3,-11.3 -4.2,-17 1.1,-13 5,-25.5 7.1,-38.4 -9.7,12.2 -17.1,26.2 -27.6,37.7 -6.6,7.2 -14,14.2 -23.2,17.8 -3.6,1 -9,1.9 -11.3,-2 -3.2,-5.4 -2.6,-11.9 -2.3,-17.8 1.7,-14.8 7.2,-28.8 14,-41.9 5.4,-10.1 11.8,-19.8 19.3,-28.5 2.8,-3.3 6,-6 8.3,-9.6 -4.3,-1.8 -10,-1.4 -13.1,-5.3 -2.5,-5.7 -0.8,-12.3 1,-17.9 5.7,-15.6 15.8,-29 27.2,-40.9 11.6,-12.1 25.2,-22.3 40.2,-29.7 8.6,-4 18,-6.4 27.6,-6.2 2.9,0 5.9,0.2 8.8,-0.3 2.3,-1.1 1.3,-3.8 1.3,-5.8 -16.7,-1.6 -33.9,1.9 -48.1,10.9 -8.2,4.5 -15.7,10.2 -23,16 -8.5,-11.1 -17.9,-21.5 -29,-30 -17.7,-13.9 -38.4,-23.5 -60.2,-28.7 0.1,-4.7 -0.4,-9.9 -3.5,-13.7 -6.3,-7.9 -16.4,-12 -26.3,-12.7 -9.2,-0.6 -18.8,-0.3 -27.3,3.7 -5.1,2.3 -9.5,6 -12.4,10.6 -2.3,3.6 -2.4,8.1 -2.2,12.2 -32.6,7.6 -62.7,25.8 -83.6,52 -2,2.5 -3.9,5 -5.9,7.5 -3.3,-2.2 -6.2,-4.9 -9.3,-7.3 -14,-10.1 -29.6,-19.2 -47.2,-20.6 -2.6,-0.6 -6,3.1 -3.7,5.3 1.7,1.6 4.4,1.3 6.5,1.8 10.1,1.1 19.6,5.3 28.2,10.7 15,8.7 28,20.6 39.2,33.8 8.5,10.5 16.1,22 19.9,35 1.1,4.8 2.5,10.6 -0.7,14.9 -3.6,2.8 -8.6,2.9 -12.8,4.6 3,4.3 7,7.7 10.3,11.8 10.4,12.6 18.8,26.9 24.8,42.2 4.5,11.8 8.1,24.5 6.7,37.2 -0.4,3.9 -2.2,8.8 -6.7,9.3 -7,0.2 -13,-4.2 -18.3,-8.2 -16.9,-13.3 -26.7,-32.8 -39.5,-49.6 1.8,12.5 5.5,24.6 7.1,37.1 0.4,5.9 1,12.5 -2.2,17.9 -2.2,3.7 -7.3,3.2 -10.8,1.9 -8.5,-3.3 -15.4,-9.7 -21.7,-16.2 -10.3,-10.8 -18,-23.8 -25.2,-36.8 -1.1,-2.2 -2.5,-4.3 -4,-6.2 -1.1,8 -0.9,16.2 -2.4,24.2 -0.7,3.5 -3.6,7.4 -7.6,6.9 -6.6,-0.6 -12.300001,-4.5 -17.300001,-8.5 -12.9,-10.8 -22.8,-24.6 -30.8,-39.3 -7.1,-13.4 -12.8,-27.9 -14.5,-43.2 -0.5,-9.1 -0.7,-18.5 1.6,-27.5 1,-4.1 2.8,-8 3.5,-12.2 -0.7,-2.6 -3.2,-4.4 -3.7,-7 -3.1,-22.1 -4.2,-44.5 -1.6,-66.6 4.1,-36.1 16.9,-71 36.7,-101.3 31.400001,-48.5 80.200001,-85.100003 135.000001,-103.000003 20.3,-6.8 41.5,-11.1 62.8,-12.9 7.1,-0.6 14.2,-1.2 21.3,-0.7 -2,2.4 -4.6,3.9 -6.9,6 -1.1,1.9 -1.4,4.1 -2,6.2 0.8,0.5 1.7,0.9 2.6,1.4 4.5,-2.8 9.1,-5.6 12.2,-10.1 m -105.7,60.500003 c -9.8,1.6 -18.3,7.9 -24.4,15.4 -11.3,14.2 -16.5,32.2 -18.3,49.9 -1.7,20.7 1,42.2 10.6,60.9 5.1,9.6 12.3,18.7 22.1,23.8 9.8,5.3 22.4,4.7 31.8,-1.4 12,-7.5 19.9,-20.3 24.4,-33.5 6.9,-19.1 7.7,-39.9 4.5,-59.8 -3.1,-16.5 -9.4,-33.2 -21.8,-45.1 -7.5,-7.3 -18.3,-11.8 -28.9,-10.2 m 191,0.1 c -10.8,1.7 -19.9,9 -26.1,17.7 -10.3,14 -15,31.3 -16.7,48.3 -1.5,20.5 1.4,41.6 10.8,60 5.1,9.9 12.5,19.2 22.6,24.3 10,5 22.6,4.1 31.8,-2.1 12.6,-8.3 20.4,-22.1 24.8,-36.2 6,-18.2 6.6,-38 3.6,-56.8 -3.2,-16.8 -9.6,-33.8 -22.4,-45.6 -7.5,-7.1 -18.1,-11.3 -28.4,-9.6 z"
     id="path3" />
  <path
     fill="#ffffff"
     stroke="#ffffff"
     stroke-width="0.09375"
     opacity="1"
     d="m 202.42639,129.5442 c 10.6,-1.6 21.4,2.9 28.9,10.2 12.4,11.9 18.7,28.6 21.8,45.1 3.2,19.9 2.4,40.7 -4.5,59.8 -4.5,13.2 -12.4,26 -24.4,33.5 -9.4,6.1 -22,6.7 -31.8,1.4 -9.8,-5.1 -17,-14.2 -22.1,-23.8 -9.6,-18.7 -12.3,-40.2 -10.6,-60.9 1.8,-17.7 7,-35.7 18.3,-49.9 6.1,-7.5 14.6,-13.8 24.4,-15.4 m 19,34 c -4.7,1.5 -8.5,4.9 -11.1,8.9 -6.9,10 -9.5,22.5 -9.3,34.6 -0.2,12.1 2.2,24.8 8.9,35 3.6,5.4 9.3,10.3 16.1,9.8 7.5,0.1 13.3,-6 16.8,-12.1 7.2,-13.1 8.6,-28.7 6.8,-43.3 -1.7,-10.5 -5,-21.6 -13,-29 -4,-3.8 -9.9,-5.3 -15.2,-3.9 z"
     id="path4" />
  <path
     fill="#ffffff"
     stroke="#ffffff"
     stroke-width="0.09375"
     opacity="1"
     d="m 393.42639,129.6442 c 10.3,-1.7 20.9,2.5 28.4,9.6 12.8,11.8 19.2,28.8 22.4,45.6 3,18.8 2.4,38.6 -3.6,56.8 -4.4,14.1 -12.2,27.9 -24.8,36.2 -9.2,6.2 -21.8,7.1 -31.8,2.1 -10.1,-5.1 -17.5,-14.4 -22.6,-24.3 -9.4,-18.4 -12.3,-39.5 -10.8,-60 1.7,-17 6.4,-34.3 16.7,-48.3 6.2,-8.7 15.3,-16 26.1,-17.7 m -18,33.9 c -7,1.8 -11.6,8.1 -14.7,14.2 -6.5,13.5 -7.3,29.1 -5,43.7 1.9,10 5.6,20.6 13.8,27.1 6,5 15.4,4.3 20.9,-1.1 8.1,-7.8 11.5,-19.3 13,-30.2 1.4,-15.7 -0.1,-32.8 -9.7,-45.9 -4,-5.8 -11.3,-9.7 -18.3,-7.8 z"
     id="path5" />
  <path
     fill="#ee7f7f"
     stroke="#ee7f7f"
     stroke-width="0.09375"
     opacity="1"
     d="m 221.42639,163.5442 c 5.3,-1.4 11.2,0.1 15.2,3.9 8,7.4 11.3,18.5 13,29 1.8,14.6 0.4,30.2 -6.8,43.3 -3.5,6.1 -9.3,12.2 -16.8,12.1 -6.8,0.5 -12.5,-4.4 -16.1,-9.8 -6.7,-10.2 -9.1,-22.9 -8.9,-35 -0.2,-12.1 2.4,-24.6 9.3,-34.6 2.6,-4 6.4,-7.4 11.1,-8.9 z"
     id="path6" />
  <path
     fill="#ee7f7f"
     stroke="#ee7f7f"
     stroke-width="0.09375"
     opacity="1"
     d="m 375.42639,163.5442 c 7,-1.9 14.3,2 18.3,7.8 9.6,13.1 11.1,30.2 9.7,45.9 -1.5,10.9 -4.9,22.4 -13,30.2 -5.5,5.4 -14.9,6.1 -20.9,1.1 -8.2,-6.5 -11.9,-17.1 -13.8,-27.1 -2.3,-14.6 -1.5,-30.2 5,-43.7 3.1,-6.1 7.7,-12.4 14.7,-14.2 z"
     id="path7" />
  <path
     fill="#ffeb8f"
     stroke="#ffeb8f"
     stroke-width="0.09375"
     opacity="1"
     d="m 282.72639,255.7442 c 8.5,-4 18.1,-4.3 27.3,-3.7 9.9,0.7 20,4.8 26.3,12.7 3.1,3.8 3.6,9 3.5,13.7 -2,6.1 -6.7,11.1 -12.3,14.1 -10.4,5.8 -23,6.6 -34.5,4.6 -10.4,-2.1 -21.6,-7.9 -24.9,-18.6 -0.2,-4.1 -0.1,-8.6 2.2,-12.2 2.9,-4.6 7.3,-8.3 12.4,-10.6 z"
     id="path8" />
  <path
     fill="#ee7f7f"
     stroke="#ee7f7f"
     stroke-width="0.09375"
     opacity="1"
     d="m 263.32639,394.3442 c 4.3,-1.2 9.3,-0.3 12.1,3.2 3.3,4 4,9.5 4.5,14.4 0.3,5.9 0.2,12.1 -2.6,17.5 -2.3,4.5 -8.5,6.8 -13,4.4 -2.3,-2.6 -1.3,-6.6 -1.6,-9.8 0.4,-9.9 -0.6,-19.9 0.6,-29.7 z"
     id="path11" />
  <path
     fill="#ffead4"
     stroke="#ffead4"
     stroke-width="0.09375"
     opacity="1"
     d="m 124.12639,478.0442 c 4,6.1 8.2,12.1 12.3,18.2 -5,-3.3 -9.3,-7.3 -13.6,-11.3 0.3,-2.4 0.7,-4.7 1.3,-6.9 z"
     id="path12"
     style="fill:#ee7f7f;fill-opacity:1" />
  <path
     fill="#ffe9d2"
     stroke="#ffe9d2"
     stroke-width="0.09375"
     opacity="1"
     d="m 474.62639,489.6442 c 2.7,-3.8 5,-8 7.9,-11.7 0.6,2.6 1.1,5.2 1.5,7.8 -5.5,5.1 -11,10.1 -17.2,14.2 2.4,-3.5 5.3,-6.7 7.8,-10.3 z"
     id="path13" />
  <path
     fill="#ffe6cf"
     stroke="#ffe6cf"
     stroke-width="0.09375"
     opacity="1"
     d="m 189.52639,509.1442 c 9.6,9.3 19.4,18.5 30.9,25.5 9.5,6.3 20.1,10.6 30.6,15.2 -25.7,-5.4 -50.7,-14 -73.8,-26.3 3,-1.2 6.4,-2.2 8.4,-4.9 2.2,-2.7 2.9,-6.2 3.9,-9.5 z"
     id="path14" />
  <path
     fill="#ffe6d0"
     stroke="#ffe6d0"
     stroke-width="0.09375"
     opacity="1"
     d="m 375.62639,541.5442 c 15.5,-7.7 29.4,-18.5 41.4,-31 1.3,3.1 2.4,6.4 4.6,8.9 2.2,2.5 5.5,3.1 8.5,4.1 -14.4,8.1 -29.8,14.1 -45.5,19.1 -7.8,2.3 -15.7,4.7 -23.8,6.1 4.7,-2.8 10,-4.5 14.8,-7.2 z"
     id="path15" />
  <path
     style="fill:#ee7f7f;fill-opacity:1;stroke-width:0.75"
     id="path16"
     d="m 250.53387,419.81623 c 0.20282,-9.193 0.22226,-18.38939 0.37725,-27.58351 0.10722,-1.34103 0.21445,-2.68206 0.32167,-4.02309 0.45716,0.26684 1.89052,0.90455 1.3715,0.80053 -2.31548,-0.46406 -5.19768,-3.60351 -6.82673,-1.89385 -1.52365,1.59906 2.07986,3.90007 3.00329,5.9065 2.3959,5.20579 3.3847,8.27452 5.32708,13.63039 0.68188,2.01038 1.36151,4.02153 2.04565,6.03114 0.70836,2.08081 1.89348,6.03861 3.14131,8.15547 0.25168,0.42695 0.585,0.89925 1.05917,1.04348 3.59545,1.09359 7.23963,3.09421 10.96696,2.61437 1.38133,-0.17783 0.47294,-2.74504 0.70942,-4.11756 0.68301,-5.73632 0.66799,-11.51825 0.77221,-17.28356 0.0264,-1.46062 0.0248,-2.9223 0.0925,-4.38159 0.0193,-0.41553 0.54947,-1.07103 0.16786,-1.23659 -3.17707,-1.37839 -6.63028,-2.00365 -9.94541,-3.00548 0.33545,12.41639 0.34536,24.84512 1.14255,37.24359 0.0992,1.00306 -0.44949,2.33267 0.29771,3.0092 2.83489,2.56675 5.96988,5.39471 9.73346,6.07316 1.39457,0.25139 0.64305,-2.78278 0.65907,-4.19973 0.0244,-2.15295 -0.31899,-4.29493 -0.53881,-6.43677 -0.52557,-5.12065 -1.38191,-11.35184 -2.04983,-16.43753 0,0 -8.98237,-4.43284 -8.98237,-4.43284 v 0 c 0.74557,5.91355 1.39327,10.29995 1.77802,16.22187 0.13156,2.02515 0.10791,4.05745 0.18114,6.08554 0.0266,0.7383 -0.43569,1.72464 0.11851,2.21315 2.63038,2.31864 5.50444,4.63212 8.84741,5.69018 1.00657,0.31859 -0.43873,-2.06548 -0.6581,-3.09823 -1.1809,-12.24275 -1.33293,-24.6111 -0.72662,-36.89152 -3.26547,-2.34793 -6.33506,-4.99558 -9.7964,-7.04379 -0.41432,-0.24516 0.2524,0.93549 0.28539,1.41578 0.10215,1.4869 0.1117,2.97925 0.11892,4.46963 0.0274,5.66942 -0.11654,11.36516 -0.94748,16.98236 -1.63117,7.63436 -1.66527,2.27852 8.11682,10.55925 0.43235,0.366 -1.21321,-0.18521 -1.58521,-0.61242 -0.80045,-0.9193 -1.25676,-2.09667 -1.74588,-3.21317 -0.62027,-1.41588 -3.66428,-10.12612 -4.0094,-11.10261 -2.22985,-6.17618 -2.65533,-7.58496 -5.19026,-13.67403 -0.83156,-1.99746 -1.08519,-4.40306 -2.60094,-5.94702 -3.46809,-3.53265 -7.64746,-6.36058 -11.92618,-8.85052 -0.59597,-0.34682 -1.64129,0.16408 -1.90764,0.80011 -0.53603,1.28001 -0.11293,2.77314 -0.16938,4.15971 -0.0462,9.06434 -0.087,18.15562 -0.93631,27.18655 z" />
  <path
     style="fill:#ee7f7f;fill-opacity:1;stroke-width:0.75"
     id="path17"
     d="m 279.20713,434.37169 c -0.49996,-0.78221 -1.06962,-1.524 -1.49988,-2.34661 -1.87299,-3.58094 -2.9881,-6.85856 -4.41928,-10.6937 -2.59026,-6.94119 -5.0198,-13.93713 -7.50612,-20.91572 -0.65888,-1.57054 -1.15103,-3.22197 -1.97664,-4.71163 -2.27568,-4.10603 -10.65478,-5.29071 -13.24612,-5.03795 -1.56057,0.15221 -1.12585,2.9303 -1.57248,4.43334 -0.95833,3.22502 -1.55118,6.60401 -2.20441,9.89782 -0.14677,1.41664 -0.37356,2.82727 -0.44032,4.24993 -0.10411,2.21861 -0.0296,3.94338 0.69116,6.01622 1.45461,4.18346 9.07687,5.39369 11.47482,5.85419 0.794,0.15248 0.58201,-1.50864 0.87302,-2.26296 0.21012,-0.92437 0.43116,-1.84633 0.63037,-2.77312 0.18023,-0.83848 0.23723,-1.70847 0.50786,-2.52228 0.0841,-0.2528 0.32246,0.86877 0.0661,0.79649 -3.14589,-0.88675 -5.93907,-3.43246 -9.20701,-3.3731 -1.18132,0.0214 0.19117,2.35572 0.24829,3.53585 0.0504,1.04106 0.0494,2.08397 0.0742,3.12595 -1.07681,-4.53705 0.26994,2.5555 7.97147,1.98875 1.31682,-0.0969 -1.03219,-2.43087 -1.57172,-3.63599 -2.48562,-5.5519 -2.83328,-6.76407 -11.98694,-9.19753 -1.06524,-0.28319 -0.95201,1.98833 -1.42801,2.98249 -0.93101,4.74625 -1.36088,9.57924 -1.66523,14.40095 -0.17893,2.8347 -0.0996,5.7372 -0.43629,8.56165 3.23562,1.25858 6.29383,3.13978 9.70687,3.77574 0.7318,0.13636 -0.48541,-1.40757 -0.74389,-2.10564 -0.3605,-0.97356 -1.89916,-5.32314 -2.76436,-5.88866 -3.34374,-2.1856 -6.93413,-3.96834 -10.40119,-5.95251 -0.3607,0.379 -0.78194,0.70846 -1.08211,1.137 -1.64027,2.34176 -1.57143,6.50351 -1.76367,9.2552 -0.16889,4.27795 -0.1182,8.56147 -0.14289,12.84212 0.2119,4.83223 -0.31087,3.95018 10.34313,5.24464 0.79863,0.097 0.25743,-1.58895 0.34644,-2.38851 0.10303,-0.92547 0.40731,-5.24756 0.5474,-6.12039 0.15562,-0.96955 0.44505,-1.91283 0.66757,-2.86924 0.94193,-2.59946 2.00929,-5.20388 3.94077,-7.24804 0.46998,-0.4974 2.14266,-0.89635 1.58952,-1.29924 -11.00479,-8.01535 -8.96711,-5.06177 -7.13295,-0.71714 1.91439,7.52353 1.51542,15.31652 2.00772,22.98901 0.67069,4.45936 0.12771,2.59805 10.37525,5.46954 0.39517,0.11073 0.61428,-9.02799 0.63247,-9.55965 0.18456,-7.18002 2.31366,-6.37517 -9.65115,-8.90927 -0.61239,-0.1297 0.0829,1.24942 0.14479,1.87233 0.0689,0.69407 0.16493,1.38519 0.24739,2.07779 1.35286,6.20521 4.60547,8.9666 13.0232,8.99594 1.37588,0.005 0.77832,-2.64467 1.02657,-3.99797 0.35041,-1.91016 0.51086,-3.85033 0.7663,-5.7755 1.17175,-13.77521 -0.0198,0.73882 0.94287,-12.51891 0.0522,-0.71869 0.80592,-1.75836 0.20251,-2.15224 -3.06849,-2.00302 -6.45936,-4.00641 -10.11069,-4.31549 -1.14501,-0.0969 -0.19494,2.28999 -0.27771,3.43611 -0.10848,1.50184 -0.19736,3.00504 -0.29604,4.50755 -0.19113,3.87607 -0.36096,4.81262 -0.0929,8.5808 0.0592,0.8322 -0.32047,1.96213 0.33315,2.48064 2.96735,2.35397 6.20179,4.7011 9.87663,5.61867 1.01506,0.25345 0.196,-2.10112 0.0577,-3.13816 -0.20016,-1.50058 -0.71014,-2.94327 -1.06521,-4.4149 -0.4557,-1.56501 -2.09559,-7.3912 -2.7894,-9.06169 -0.32742,-0.78833 -0.57168,-1.75454 -1.29355,-2.21013 -3.42455,-2.16135 -6.96462,-4.32989 -10.85424,-5.45676 -0.77106,-0.22339 -2.10758,3.93137 -2.16993,4.09869 -0.77481,5.58548 -0.76484,5.26334 9.92851,7.12954 0.83541,0.14579 0.0207,-1.69716 -0.0245,-2.54399 -0.0736,-1.38109 -0.41364,-4.58847 -0.56682,-6.09558 -0.0668,-0.42315 0.18357,-1.07943 -0.20037,-1.26944 -3.26859,-1.61754 -6.5812,-3.7597 -10.22579,-3.89021 -1.17319,-0.042 -0.12511,2.3452 -0.13939,3.51905 -0.0471,3.86967 0.21189,7.62165 0.75218,11.44699 1.45003,5.05004 1.10893,5.69652 10.87112,7.5471 1.14805,0.21762 0.71342,-2.23811 0.86782,-3.39636 0.23468,-1.76051 0.27729,-3.54413 0.2941,-5.32014 0.0427,-4.50592 -0.32739,-10.44255 -0.55528,-14.93112 -1.19175,-9.31651 -0.4612,-12.44516 -12.46943,-15.91281 -1.03171,-0.29793 -1.25595,1.76319 -1.67495,2.75194 -0.81776,1.92973 -1.43725,5.53824 -1.84563,7.56485 -0.1867,1.00453 -0.34134,2.01555 -0.56008,3.0136 -1.04988,4.7901 -3.63603,1.84096 9.46622,6.00139 0.50914,0.16168 -0.25382,-1.04155 -0.30503,-1.5733 -0.13937,-1.44759 -0.13261,-4.50257 -0.14503,-5.9041 -2.35061,-0.68929 1.84078,-4.18372 0.40394,-5.10578 -2.89399,-1.85716 -6.17288,-4.16475 -9.59179,-3.79686 -1.59856,0.17201 0.68286,3.14282 0.9721,4.72437 0.70556,3.85783 1.78659,10.89765 2.38286,14.68883 0.35098,2.3666 0.67297,4.73768 1.05296,7.0998 0.40311,2.50581 1.29202,7.70935 2.0433,10.37951 0.21125,0.75083 0.19632,1.77593 0.86757,2.17316 11.52171,6.81846 9.98052,7.84604 11.42169,0.6963 0.32898,-7.82628 -0.23912,-15.66318 -0.7092,-23.47171 -0.16415,-2.72654 -0.35256,-5.45157 -0.54152,-8.17649 -0.3393,-4.89289 -0.0966,-3.24816 -0.57182,-5.99603 -3.45295,-1.15231 -6.72069,-3.57681 -10.35887,-3.45695 -1.27049,0.0419 -0.17033,2.53672 -0.23841,3.80606 -0.10538,1.96457 -0.30118,6.73822 -0.37953,8.72427 -0.0507,1.28561 -0.16601,2.57066 -0.14513,3.85711 0.0175,1.07872 0.17341,2.15074 0.26011,3.22612 1.34957,4.12716 0.97646,3.7043 10.99753,4.13519 0.32709,0.014 0.61334,-5.49214 0.6292,-5.61477 0.0106,-0.0824 0.12498,-0.1094 0.18747,-0.16411 -3.33558,-0.97244 -6.67116,-1.94488 -10.00674,-2.91732 -0.11775,5.52278 0.13599,11.09179 -0.30147,16.60568 -0.0421,0.53177 -0.74318,1.29936 -0.28619,1.57452 2.91929,1.75774 6.29029,2.62293 9.43544,3.93439 -1.75326,-3.08441 -2.72331,-6.5146 -3.99842,-9.80359 -0.12958,-0.33425 -1.25388,-3.44973 -1.84483,-3.72466 -3.42999,-1.59578 -7.04257,-2.7654 -10.56386,-4.1481 -0.0855,0.82831 -0.24097,1.65237 -0.25642,2.48494 -0.0307,1.65464 0.25885,3.80379 0.54762,5.43143 0.11243,0.6337 -0.10102,1.50433 0.4179,1.88503 10.19812,7.48176 8.84155,9.11475 10.7349,3.55698 0.54456,-6.09836 -0.0488,1.25475 0.23937,-4.75776 0.19713,-4.11255 12.61869,-0.15556 -9.89118,-4.72393 -0.71924,-0.14597 0.16572,1.45841 0.25036,2.18742 0.0988,0.85138 0.20005,1.70248 0.30008,2.55373 0.36375,3.30828 0.16047,1.70347 0.60123,4.81548 0,0 9.86052,4.83324 9.86052,4.83324 v 0 c -0.52677,-3.08192 -0.30046,-1.48702 -0.66162,-4.78711 -0.0818,-0.83603 -0.17439,-1.67108 -0.24543,-2.5081 -0.0565,-0.66643 0.3869,-1.58644 -0.13733,-2.00178 -13.06326,-10.35 -9.56711,-8.79039 -9.83435,-3.08989 -0.0343,0.73049 -0.15372,1.45447 -0.23057,2.18171 -0.34944,4.23799 -0.4237,2.22067 8.97482,6.4941 0.58256,0.26488 -0.42551,-1.20998 -0.56867,-1.83371 -0.52744,-2.29794 -0.73677,-4.67629 -0.48888,-7.02405 -3.1045,-1.94442 -6.18058,-3.93498 -9.31351,-5.83326 -0.40652,-0.24632 0.85945,0.48052 1.12733,0.87316 0.54077,0.7926 0.87248,1.71137 1.24052,2.59747 1.34073,3.22794 2.28104,6.60775 3.49351,9.88247 3.54279,1.88265 6.85505,4.28492 10.62837,5.64797 0.56217,0.20307 0.036,-1.19497 0.0444,-1.79264 0.0175,-1.24191 0.0144,-2.48406 0.0333,-3.72595 0.0646,-4.25409 0.16488,-8.51096 0.47509,-12.75538 -3.28223,-2.41478 -6.54097,-4.86179 -9.84667,-7.24433 -0.0917,-0.0661 0.18526,0.16953 0.1874,0.28251 0.0167,0.88218 -0.0341,1.76683 -0.13197,2.64372 -0.0942,0.84345 -1.04995,1.91362 -0.44336,2.50721 6.36595,6.22942 13.37829,6.41199 8.35255,6.15905 -0.13968,-1.0477 -0.36781,-2.08738 -0.41903,-3.14312 -0.0627,-1.29174 0.0405,-2.58629 0.0783,-3.879 0.077,-2.63316 0.2053,-6.0039 0.44535,-8.62718 0.1063,-1.1616 1.21345,-2.60973 0.42895,-3.47294 -2.57835,-2.83705 -6.32658,-4.33142 -9.48987,-6.49714 0.28216,0.40713 0.71485,0.74385 0.84648,1.22139 0.95121,3.45121 1.31009,10.13738 1.49077,13.1238 0.45942,7.59343 0.82196,15.26016 0.0952,22.84838 -1.39455,6.03387 -1.8843,3.86662 8.06942,8.91583 0.7331,0.37188 -0.99766,-1.33369 -1.28914,-2.1023 -0.55453,-1.4622 -0.86989,-3.00571 -1.22554,-4.52855 -1.21773,-5.2144 -1.48315,-7.61588 -2.34253,-13.07373 -0.92118,-6.27902 -1.27802,-8.30882 -1.96382,-14.48092 -0.16971,-1.52741 0.65768,-3.50032 -0.42522,-4.59079 -2.79282,-2.81235 -6.47792,-4.7496 -10.2008,-6.10953 -1.65682,-0.60521 1.50866,6.55793 -0.34734,5.28029 -0.007,1.26727 -0.0155,4.52677 -0.0631,5.85966 -0.0234,0.65448 -0.65803,1.58142 -0.12419,1.96075 11.62778,8.26242 9.7856,7.60808 10.87121,0.63011 0.55186,-2.78456 0.73649,-4.49975 1.84691,-7.11362 0.21674,-0.51021 1.32283,-1.00577 0.91929,-1.38582 -13.1336,-12.36883 -7.31716,-5.3274 -6.34634,-1.61496 0.52003,1.98858 0.68292,4.05378 1.02437,6.08066 0.29263,5.84904 0.59365,8.82165 0.29361,14.64418 -0.0864,1.67574 -0.32089,3.34146 -0.54806,5.00397 -0.0948,0.69363 -0.93318,1.58553 -0.41697,2.05842 2.57739,2.36111 5.6644,4.17564 8.83299,5.65137 0.64029,0.2982 -0.57223,-1.29155 -0.85835,-1.93732 -0.66741,-3.74522 -1.04733,-7.40232 -0.85662,-11.2205 0.0533,-1.06741 1.09801,-2.42695 0.34704,-3.18738 -2.68445,-2.71832 -6.27513,-4.38729 -9.6308,-6.21349 -0.38483,-0.20943 0.31291,0.81847 0.46936,1.2277 0.42051,2.953 0.47156,2.7724 0.57213,5.95144 0.0225,0.71073 -0.56189,1.6757 -0.0175,2.13317 2.90633,2.44231 6.45701,3.99418 9.68552,5.99127 -0.0908,-0.21458 -0.25497,-0.41139 -0.27233,-0.64372 -0.0434,-0.58151 0.0625,-1.16459 0.0937,-1.74689 0.2325,-0.62574 0.38167,-1.28913 0.69749,-1.87723 2.05705,-3.83058 7.93639,1.52374 -7.31414,-6.4636 -0.78418,-0.41071 1.28882,1.26043 1.6869,2.05109 0.8351,1.6586 2.35777,7.3081 2.82876,8.95165 1.39442,7.06364 1.1638,7.77404 10.56763,11.34592 0.78614,0.2986 -0.50215,-1.61354 -0.61375,-2.44705 -0.4446,-3.32061 -0.19452,-5.10049 -0.0324,-8.48864 0.14868,-1.46282 0.26361,-2.92945 0.44604,-4.38844 0.77791,-6.2216 2.42309,-4.42648 -9.01038,-9.09705 -0.72897,-0.29778 0.3794,1.54351 0.38367,2.33093 0.018,3.31116 -0.6363,9.15718 -0.95128,12.40607 -0.32322,1.83958 -0.55568,3.69744 -0.96967,5.51874 -0.2559,1.1258 -1.7659,2.41045 -1.03602,3.30498 2.24464,2.75101 5.7653,4.14849 8.72177,6.11463 0.41565,0.27642 -0.78506,-0.63379 -1.08277,-1.03446 -0.8462,-1.13888 -0.95667,-2.01472 -1.34234,-3.36062 -0.0817,-0.66759 -0.1884,-1.3326 -0.24519,-2.00278 -0.0501,-0.59148 0.38819,-1.40825 -0.0752,-1.7792 -11.85047,-9.48615 -9.77213,-8.72037 -9.97339,-1.1165 -0.0956,2.57621 -0.17078,5.1563 -0.50909,7.71552 -0.0567,0.42923 -0.56955,1.02183 -0.22184,1.27983 3.01155,2.23452 6.37248,3.9648 9.6777,5.73626 0.26604,0.14259 -0.29709,-0.52551 -0.44564,-0.78825 -0.53896,-3.62793 -0.27351,-1.26535 -0.47593,-5.77125 -0.26275,-5.84861 -0.58722,-11.71312 -1.56615,-17.49353 -1.70712,-6.78586 -0.49529,-5.33367 -12.00849,-9.69448 -0.6972,-0.26407 -1.13793,0.97165 -1.62888,1.53272 -1.9539,2.23297 -3.12506,4.90393 -4.12133,7.66717 -0.2398,1.00195 -0.54676,1.99017 -0.71938,3.00585 -0.33717,1.98375 -0.35846,4.00982 -0.62991,6.00362 -0.1003,0.73666 -0.91464,1.677 -0.38346,2.19717 2.73434,2.67763 6.03215,4.76762 9.38325,6.61597 0.44678,0.24643 -0.10011,-1.01553 -0.15016,-1.52331 -0.0529,-4.26152 -0.0788,-8.52528 0.0966,-12.78465 0.11376,-2.08875 0.1313,-6.73579 1.46521,-8.41488 0.0917,-0.11544 0.27333,-0.11065 0.41,-0.16598 -17.79259,-11.01026 -9.3199,-6.96529 -7.48712,-4.03152 0.57883,0.92654 1.51955,3.31485 1.87322,4.31756 0.23232,0.65869 0.0579,1.58877 0.6217,2.001 3.22575,2.35849 6.90762,4.0195 10.36143,6.02925 -0.40357,-1.92672 -0.30984,-1.16712 -0.30002,-4.23873 0.0197,-6.15591 0.51429,-12.3611 1.94539,-18.35853 1.72131,-4.0299 2.08268,-3.51084 -7.3766,-6.66605 -1.06261,-0.35444 1.06654,1.97288 1.51873,2.99771 0.51993,1.17834 0.47785,2.69838 1.394,3.60363 9.60495,9.49077 7.14531,10.82296 11.62354,7.43166 -0.0402,-1.05537 -0.0908,-2.11039 -0.12053,-3.16611 -0.0329,-1.17035 0.68212,-2.61223 -0.0673,-3.51181 -2.70803,-3.25079 -6.2584,-5.72323 -9.68888,-8.19969 -0.2649,-0.19124 -0.52891,0.43857 -0.63312,0.74822 -0.55253,1.64179 -0.32509,3.48573 -1.09832,5.07942 -2.05006,4.89062 -1.35136,1.68878 8.21369,7.53248 0.43167,0.26372 -0.82986,-0.6292 -1.07381,-1.07235 -1.66433,-3.02336 -1.0135,-6.74101 -0.80962,-9.97569 0.65448,-3.45189 1.08968,-6.34345 2.18612,-9.70051 0.43312,-1.32612 2.29695,-2.67361 1.58512,-3.87338 -1.75827,-2.9635 -5.30367,-4.40364 -7.86414,-6.70967 -0.68331,-0.6154 1.69934,0.87642 2.22501,1.63094 0.99855,1.43325 1.47922,3.16498 2.21883,4.74747 2.60862,6.9319 5.09756,13.89962 7.50154,20.90552 1.60611,4.68067 2.0147,6.33293 3.79281,10.59624 0.34295,0.82229 0.76009,1.61165 1.14014,2.41748 z" />
  <path
     style="fill:#ee7f7f;fill-opacity:1;stroke-width:0.75"
     id="path18"
     d="m 257.61116,394.6059 c 1.09547,13.10647 0.40282,26.29019 1.17245,39.40549 0.12149,2.07036 0.38235,4.13017 0.57352,6.19526 0.40656,1.37775 0.6276,2.82447 1.21969,4.13325 0.26594,0.58786 0.69332,1.21318 1.29929,1.43477 3.6803,1.34576 7.43574,3.71226 11.31791,3.17896 1.66804,-0.22914 0.92548,-3.24378 1.22067,-4.90141 0.89183,-5.00818 0.92196,-8.44979 1.20518,-13.54891 0.0269,-2.03055 0.0633,-4.061 0.0805,-6.09166 0.0486,-5.73061 0.80541,-7.64083 -9.48386,-9.55577 -1.4026,-0.26104 -0.57891,2.80164 -0.69086,4.22392 -0.14907,1.89387 -0.0587,3.79901 -0.0902,5.69849 -0.0381,2.29862 -0.0791,4.5972 -0.11867,6.8958 0.36975,9.81787 -1.23349,19.93059 13.6285,19.23504 1.62914,-0.0763 1.229,-3.03297 1.62459,-4.6152 0.56335,-2.25325 0.82894,-4.57065 1.24341,-6.85598 1.24142,-7.59712 1.49785,-15.31207 2.55204,-22.93046 0.17468,-1.26235 0.22174,-2.58252 0.72316,-3.7541 0.11098,-0.25929 0.9282,0.6015 0.65353,0.53744 -2.84907,-0.66458 -5.63615,-1.57136 -8.45423,-2.35705 2.05792,5.87343 3.88885,11.82034 5.73683,17.7616 0.71894,2.3114 2.18517,7.21477 3.22713,9.59765 0.39767,0.90944 0.96829,1.733 1.45243,2.5995 3.61131,1.88464 6.80586,5.04716 10.83393,5.65393 1.33805,0.20155 1.12483,-2.48601 1.39699,-3.81151 0.73118,-3.56119 1.03043,-12.56808 1.15193,-15.52861 0.21106,-5.14288 0.48998,-15.05916 0.64337,-20.24406 -0.10831,-5.18651 0.48874,-10.35963 0.49159,-15.54334 7.1e-4,-1.29691 0.69893,-2.97811 -0.22918,-3.88399 -2.82458,-2.75692 -6.17815,-5.69168 -10.0934,-6.19134 -1.65468,-0.21118 -1.39573,3.05324 -1.78401,4.67553 -0.67332,2.81329 -0.9236,5.71128 -1.3854,8.56692 -1.22199,10.2238 -2.59491,20.49126 -2.45085,30.81522 0.0343,2.45649 0.1876,4.91589 0.49125,7.35378 0.16149,1.29649 -0.13047,3.01149 0.89988,3.81483 3.18865,2.48616 7.25173,3.57861 10.8776,5.36793 2.43387,-4.87053 3.13917,-10.31623 3.73617,-15.66193 0.40597,-3.63521 0.75909,-6.54755 0.13627,-10.13432 -0.11819,-0.68063 -0.51981,-1.28012 -0.77973,-1.92018 -3.77566,-1.25313 -7.35037,-3.87084 -11.327,-3.75941 -1.48711,0.0417 -1.25293,2.70722 -1.70499,4.12456 -0.66852,2.09605 -1.11553,4.2565 -1.64887,6.39094 -1.64533,6.58477 -3.18376,13.18851 -4.59793,19.82616 -1.10234,7.08392 -2.99315,11.57878 9.7123,11.87417 1.54265,0.0358 0.76868,-2.99417 1.00171,-4.51955 0.70797,-4.63425 1.22243,-12.53636 1.5659,-16.93044 0.19445,-3.30073 0.42291,-6.59963 0.58335,-9.90219 0.13554,-2.79023 0.23881,-5.58228 0.3045,-8.37502 0.11597,-4.92999 0.18823,-9.22381 -10.78071,-5.67824 -2.10156,0.67929 -0.78639,4.34713 -1.12544,6.52958 -0.4225,2.71966 -0.77264,5.45008 -1.15896,8.17512 -0.55686,6.35665 -1.018,8.54715 -0.62323,14.67298 0.0735,1.14 -0.37305,2.72541 0.56277,3.38059 3.19694,2.23822 6.88078,4.65508 10.78224,4.56219 1.69193,-0.0403 1.08627,-3.21025 1.48783,-4.85432 0.54417,-2.2279 0.89726,-4.49818 1.34589,-6.74726 1.24511,-7.49551 2.24442,-15.03111 2.95286,-22.59642 0.14883,-1.58935 0.33785,-3.17862 0.36993,-4.77459 0.011,-0.54426 0.25882,-1.40057 -0.24147,-1.61517 -3.46567,-1.48665 -7.24398,-2.09968 -10.86598,-3.14951 -2.06883,7.91071 -3.66242,15.97121 -4.90276,24.05483 -0.23408,1.52555 -2.0059,3.98401 -0.58762,4.59276 3.04293,1.30608 6.61113,-0.39238 9.91669,-0.58857 0.39637,-10.72107 1.06715,-21.42581 1.16412,-32.15677 0.0233,-2.57716 -0.008,-5.15486 -0.0621,-7.73155 -0.0284,-1.34563 0.87657,-3.20786 -0.18639,-4.03347 -2.91943,-2.26757 -6.86644,-2.74081 -10.29967,-4.11122 -1.30201,9.17994 -2.1768,18.38624 -2.66778,27.64245 -0.0674,1.27074 -1.1691,3.05986 -0.14472,3.81483 11.53461,8.50121 10.08849,5.06376 10.72215,-1.79829 0.34738,-5.16333 0.63192,-8.26273 0.67908,-13.43043 0.0101,-1.11186 0.79496,-2.72028 -0.13285,-3.33309 -3.1467,-2.07834 -6.96979,-4.57992 -10.65813,-3.79416 -2.12003,0.45165 -0.94113,4.23209 -1.37048,6.35674 -0.58624,2.90096 -1.11741,5.81278 -1.67611,8.71917 -0.57993,2.99828 -1.26411,5.97826 -1.73981,8.99483 -0.40629,2.57631 -0.68398,5.17318 -0.90429,7.772 -0.13134,1.54918 -0.153,3.10706 -0.14979,4.6618 7.4e-4,0.36867 -0.18604,0.97158 0.16167,1.09417 11.9181,4.20168 10.1922,5.83345 11.15006,-1.83747 0.44694,-4.35982 0.63711,-5.46185 0.79835,-9.62974 0.0209,-0.54031 0.45278,-1.36881 -0.0251,-1.62196 -3.29023,-1.74325 -6.7375,-3.73738 -10.45597,-3.93113 -0.22072,-0.0115 -1.2477,6.68639 -1.25323,6.72068 -3.64469,-0.67359 6.12328,3.69066 8.47625,1.9915 1.98253,-1.43164 -1.22509,-4.73499 -1.86193,-7.09602 -0.7009,-2.59851 -3.8665,-14.30359 -4.93611,-16.94939 -0.60934,-1.50727 -1.6607,-2.7955 -2.49105,-4.19325 -3.9819,-1.41922 -7.73365,-4.61617 -11.94567,-4.25767 -1.95993,0.16681 -1.65479,3.58258 -2.22851,5.46407 -0.71578,2.34733 -1.15167,4.77252 -1.62709,7.18006 -0.96466,4.88509 -1.63888,9.14835 -1.83714,14.1038 -0.0532,1.32964 0.098,2.6596 0.14706,3.9894 3.30814,2.08596 6.0888,5.49434 9.92442,6.25787 1.38004,0.27471 1.02194,-2.64547 1.23696,-4.03606 0.31755,-2.05375 0.27968,-4.14768 0.34959,-6.22464 0.1846,-5.484 0.0812,-10.97481 0.22308,-16.46008 1.53694,-3.47828 1.84438,-3.81206 -10.02015,-3.10478 -1.10154,0.0656 -0.0501,2.20647 -0.06,3.30992 -0.0275,3.06993 0.0333,5.72788 0.68181,8.72539 3.3609,1.98429 6.3099,4.95331 10.08267,5.95287 1.02373,0.27122 0.74618,-1.98885 0.98481,-3.02067 0.47358,-2.0477 0.40988,-7.0595 1.65938,-8.69032 0.21418,-0.27955 0.6939,-0.12072 1.04085,-0.18107 0.42226,0.40321 1.80381,1.43868 1.26676,1.20965 -2.61227,-1.11404 -4.92627,-2.8748 -7.57475,-3.89978 -0.83161,-0.32184 1.32628,1.19382 2.0225,1.75102 0.58467,0.46791 1.13777,1.00569 1.81675,1.32157 3.74895,1.7441 7.36415,4.04467 11.42222,4.83752 0.92764,0.18125 1.12815,-1.51684 1.69224,-2.27525 1.25595,-1.3372 1.1121,-3.48379 2.20086,-4.90852 0.12993,-0.17002 0.82032,0.22404 0.62904,0.1281 -2.97329,-1.49129 -5.86134,-3.20428 -8.99372,-4.3235 -0.52783,-0.1886 0.60009,0.94703 0.88874,1.42751 0.31998,0.53264 0.62462,1.07433 0.93693,1.6115 2.68163,4.25597 2.25245,4.08111 11.25492,6.76266 0.70663,0.21049 0.53531,-1.39162 0.61557,-2.12454 0.24297,-2.21857 -0.61841,-4.29989 -1.55196,-6.22426 -1.80319,-2.09203 -0.81775,-1.18784 -2.92437,-2.74696 0,0 -10.28814,-4.00759 -10.28814,-4.00759 v 0 c 2.23932,1.24678 1.18185,0.50112 3.15708,2.25859 1.16299,1.81915 1.17439,1.46715 1.59735,3.63364 0.11943,0.61177 0.159,1.2367 0.21737,1.85729 0.0265,0.28112 -0.19268,0.68188 0.0369,0.84628 2.84166,2.03497 5.80751,3.91404 8.89583,5.55063 0.47262,0.25046 -0.60828,-0.88 -0.91242,-1.32001 -3.66112,-6.14081 -0.10759,-3.56277 -12.24934,-9.43318 -0.34558,-0.16709 -0.68179,0.41546 -0.87759,0.74563 -0.86338,1.45587 -0.91356,3.311 -2.03899,4.65054 -3.46089,4.00365 -1.82603,1.06623 6.51607,7.06752 0.61689,0.44379 -1.31266,-0.77251 -1.91985,-1.22946 -0.70206,-0.52833 -1.26891,-1.22907 -1.99821,-1.71909 -10.89351,-7.31952 -6.9988,-6.24923 -13.13445,-7.56439 -0.45228,0.33925 -1.06238,0.53513 -1.35685,1.01777 -0.7712,1.26399 -0.9275,4.3085 -1.11806,5.54939 -0.16315,1.06234 -0.37917,2.11589 -0.56923,3.17375 -0.086,0.47851 -0.6334,1.12534 -0.2589,1.43537 2.67211,2.21217 5.84446,3.73868 8.76668,5.60801 -0.22867,-0.66998 -0.55033,-1.31514 -0.68602,-2.00995 -0.37361,-1.91306 -0.36249,-4.57835 -0.30226,-6.4889 0.0337,-1.0678 0.94089,-2.42672 0.2023,-3.19861 -2.78518,-2.91078 -6.63929,-4.5666 -9.89841,-6.93473 -0.13389,-0.0973 0.32472,0.0642 0.48707,0.0963 0.53516,5.4954 0.58865,11.0301 0.21948,16.54416 -0.13093,1.95557 -0.37622,3.90297 -0.64668,5.84415 -0.10414,0.74741 -1.01684,1.68704 -0.47597,2.21329 2.40343,2.33851 5.61048,3.67465 8.41572,5.51197 -0.19742,-1.34021 -0.56828,-2.66618 -0.59224,-4.02064 -0.11024,-6.23101 1.44373,-15.00649 3.46384,-20.88422 0.53872,-1.56749 2.7896,-2.9777 2.12433,-4.4958 -1.21598,-2.77481 -4.50519,-4.05165 -6.75778,-6.07747 1.04194,1.38486 2.39827,2.58164 3.12582,4.15458 1.34972,2.91805 4.0791,13.73912 4.76393,16.7789 0.5119,2.27216 -0.11214,5.01786 1.30821,6.86376 9.28319,12.06448 8.83696,12.43536 10.83556,7.7348 0.17321,-1.09544 0.28573,-2.20222 0.51964,-3.28631 1.38599,-6.42364 3.30579,-2.93391 -8.3169,-9.43466 -0.49232,-0.27535 0.46138,1.05389 0.50028,1.61663 0.22426,3.2439 -0.33402,6.3238 -0.72885,9.53035 -1.47637,7.99006 -1.95606,3.55947 8.44218,11.38739 0.33264,0.25041 -0.80282,-0.46807 -0.89151,-0.87487 -0.33975,-1.55819 -0.38267,-3.17808 -0.33979,-4.7723 0.0701,-2.60462 0.29918,-5.20932 0.67754,-7.78728 0.44188,-3.01073 1.18635,-5.96922 1.77953,-8.95384 0.67053,-2.82887 1.2603,-5.67812 2.01159,-8.48663 0.51057,-1.90865 2.72443,-3.92544 1.77169,-5.65631 -1.73887,-3.15904 -5.20161,-5.27762 -8.54023,-6.64026 -1.07571,-0.43904 0.60386,2.26238 0.65757,3.423 0.19357,4.18301 -0.43067,9.0878 -0.83172,13.23311 -1.18423,6.68753 -2.9646,8.18035 8.1716,11.50127 1.32575,0.39535 -0.63747,-2.71295 -0.6692,-4.09604 -0.20603,-8.98204 1.31127,-17.86662 3.51345,-26.53977 -2.96334,-2.08623 -5.37424,-5.37938 -8.88999,-6.25869 -1.38489,-0.34638 0.59239,2.79868 0.73504,4.21908 1.3236,13.17945 0.0526,26.4857 -1.35899,39.59559 2.92467,3.45132 4.93966,7.95332 8.774,10.35398 1.31601,0.82395 0.15542,-3.1041 0.34394,-4.64528 0.97034,-7.93286 2.622,-15.89097 5.26731,-23.43203 -2.90178,-2.33861 -5.66736,-4.85708 -8.70532,-7.01584 -0.46165,-0.32804 0.80435,0.89276 0.87857,1.45421 0.21335,1.614 0.0465,3.25825 -0.0407,4.88396 -0.40515,7.54744 -1.5588,15.04333 -2.9277,22.46703 -0.52686,2.16178 -0.94442,4.35317 -1.58059,6.48533 -1.82739,6.12466 -4.98094,5.64026 6.74835,10.08451 1.11385,0.42205 -0.93179,-2.22055 -1.10069,-3.39965 -0.78242,-5.46224 -0.13593,-9.05195 0.31869,-14.61618 0.45941,-2.66594 0.82989,-5.34874 1.37823,-7.99782 0.4202,-2.03006 2.47656,-4.1874 1.52526,-6.02934 -1.73136,-3.35235 -5.20641,-5.63397 -8.49978,-7.47502 -0.96423,-0.53902 0.78213,2.09945 0.85539,3.20168 0.32511,4.89224 -0.41277,13.62575 -0.71133,18.2898 -0.68506,6.27483 -0.9503,10.39665 -2.21664,16.40515 -0.26082,1.23747 -1.8516,2.65391 -1.06248,3.64216 2.22499,2.7865 5.56314,4.59592 8.81274,6.064 2.15031,0.97144 -6.56013,-11.52537 0.093,-7.07808 1.24823,-6.66033 2.64966,-13.26198 4.49771,-19.78773 0.57856,-2.04297 1.13885,-4.09687 1.88687,-6.08406 0.46388,-1.23237 2.43894,-2.43217 1.73852,-3.54721 -1.84191,-2.9322 -5.38217,-4.35819 -8.07326,-6.53729 0.43869,0.55395 1.10513,0.98745 1.31607,1.66184 0.94839,3.03202 0.52834,7.02391 0.20619,10.02228 -0.51691,4.81092 -1.26711,9.75093 -3.59083,14.06434 2.61557,1.88239 4.74546,4.7715 7.84672,5.64715 1.32203,0.37327 -1.20024,-2.50216 -1.47504,-3.8481 -0.49668,-2.43266 -0.7082,-4.9228 -0.82207,-7.40302 -0.47085,-10.25525 0.8467,-20.49657 2.50108,-30.58883 0.63197,-2.69122 1.14095,-5.41432 1.8959,-8.07367 1.38709,-4.88609 5.62836,-5.92386 -7.06956,-8.44877 -1.31597,-0.26167 0.60583,2.62582 0.6965,3.96449 0.13431,1.98303 -0.0355,14.68518 -0.0459,15.75627 -0.25238,9.6628 -0.39225,19.36809 -1.55628,28.97799 -0.24435,2.01726 -0.56915,4.02806 -1.00807,6.01209 -0.18521,0.83727 -1.43971,1.79466 -0.85841,2.42505 2.18204,2.36633 5.35624,3.57127 8.03435,5.3569 -0.58856,-0.83626 -1.29955,-1.59857 -1.76568,-2.50876 -1.09614,-2.14034 -2.84838,-7.59325 -3.51053,-9.65505 -1.87039,-5.82409 -3.6547,-11.68133 -5.29072,-17.57547 -3.51379,-2.88202 -6.77876,-6.09741 -10.54135,-8.64606 -1.39041,-0.94182 -1.12373,3.20366 -1.26281,4.87725 -0.63405,7.6289 -1.19877,15.27765 -2.51693,22.8281 -0.49263,2.1774 -0.84149,4.3924 -1.4779,6.5322 -0.39576,1.33063 -2.3373,2.66101 -1.60755,3.84196 1.76877,2.86239 5.08153,4.44064 7.88006,6.30881 0.82687,0.55198 -1.56344,-1.36916 -1.88807,-2.30884 -1.09358,-3.16545 -1.08766,-9.47046 -1.21596,-12.60608 0.0953,-2.26427 0.15884,-4.53011 0.28593,-6.79282 0.10279,-1.83036 0.33951,-3.65278 0.40363,-5.48491 0.025,-0.71377 0.40035,-1.66758 -0.13682,-2.13827 -11.41282,-10.00037 -8.83307,-8.16401 -8.55359,-2.24896 0.096,2.03182 0.0456,4.06792 0.0684,6.10188 -0.32916,5.40852 -0.26487,7.95194 -1.40746,13.19221 -0.31827,1.4597 -2.12733,3.02838 -1.31764,4.28393 1.91719,2.97289 5.65345,4.26287 8.32484,6.58179 1.54365,1.33997 -11.26284,-6.48186 -3.47884,-5.05008 -0.27151,-2.07918 -0.63015,-4.14883 -0.81451,-6.23755 -0.44278,-5.01667 -0.5341,-11.79276 -0.59922,-16.73944 -0.0972,-7.38298 -0.17637,-14.78443 0.332,-22.15606 z" />
  <path
     style="fill:#ee7f7f;fill-opacity:1;stroke-width:0.75"
     id="path19"
     d="m 275.81111,383.97009 c -1.35033,-5.84539 -1.54274,-9.76801 -12.01261,-8.486 -1.80436,0.22094 -0.97533,3.5028 -1.41992,5.26543 -1.28569,5.09731 -2.64411,11.16286 -3.81095,16.25435 -0.1938,0.86225 -3.01969,13.53405 -3.41722,14.94697 -0.42442,1.50847 -0.67507,3.14811 -1.57941,4.42788 -0.28254,0.39984 -1.94084,-0.23124 -1.46374,-0.12135 10.1059,2.32767 8.3313,3.74079 5.47194,-5.37139 -0.65031,-2.71862 -1.3295,-5.43049 -1.95092,-8.15585 -0.58945,-2.58516 -2.10373,-10.36572 -3.14681,-13.3783 -1.67407,-4.83492 -6.86369,-6.52881 -12.38962,-6.35174 -1.48592,0.0476 -0.75576,2.87571 -1.13364,4.31357 -0.49826,3.24709 -1.17517,7.25925 -1.43353,10.53908 -0.42325,5.37302 0.53228,7.73332 10.38207,7.44695 1.6388,-0.0476 0.64923,-3.21574 0.88529,-4.83816 0.33215,-2.28281 0.5457,-4.58132 0.81855,-6.87198 0.96892,-10.07568 0.45733,-4.45293 1.27858,-14.13608 0.0991,-1.16893 1.30725,-2.90333 0.30105,-3.50649 -11.38477,-6.82457 -9.83289,-3.12029 -8.89226,2.56938 0.2668,1.61383 0.60758,3.21455 0.91136,4.82182 0.60561,1.41553 1.03815,2.91838 1.81684,4.24657 2.72946,4.6556 10.20713,7.34866 13.94494,8.84313 1.46162,0.58439 4.62529,-2.08614 5.65995,-2.93962 2.38161,-0.90316 2.18885,-3.80566 2.07101,-5.93808 0,0 -9.94344,-4.94739 -9.94344,-4.94739 v 0 c 0.17647,1.24238 0.34743,2.67101 -0.16774,3.8787 -0.18965,0.44458 -1.04647,0.93263 -1.33403,1.13328 -0.91363,0.74161 -1.77586,1.58215 -2.95239,1.92448 -0.63653,0.18521 -2.45179,-0.27921 -1.98003,0.18654 1.97094,1.94586 4.42621,3.37569 6.88314,4.65416 2.31525,1.20474 -9.68037,-7.32621 -4.48639,-6.41705 -0.29864,-1.57897 -0.66153,-3.14713 -0.89594,-4.73691 -1.0614,-7.19886 1.22214,-7.29715 -10.22762,-12.18735 -1.12985,-0.48256 0.21487,2.45342 0.17825,3.68146 -0.1193,4.00132 -0.83959,10.15269 -1.24929,14.07871 -0.36507,2.21221 -0.65237,4.43866 -1.09521,6.63662 -0.2766,1.3729 -1.90981,2.95136 -1.06097,4.06529 13.20818,17.33309 8.36657,6.82257 8.46162,3.23264 0.0745,-2.81641 1.02247,-7.5314 1.51741,-10.30114 2.02928,-6.49881 2.45176,-3.90678 -7.16365,-9.86984 -0.84733,-0.52548 1.46939,1.41617 1.88501,2.32246 0.8292,1.80816 1.28854,3.76788 1.79067,5.6927 0.28632,1.09756 3.28785,14.97907 3.49197,15.9192 2.48117,10.19951 0.52442,8.19792 12.91095,16.01417 0.53544,0.33787 1.30524,-0.47279 1.59078,-1.03787 0.73088,-1.4464 0.92824,-3.10729 1.30078,-4.68446 1.17905,-4.99162 1.92679,-10.07904 3.18727,-15.05322 1.69282,-6.92503 2.13497,-9.29601 4.26168,-15.92555 0.50596,-1.57723 2.56947,-3.26003 1.69947,-4.66954 -1.901,-3.07984 -5.48236,-4.80734 -8.64033,-6.5755 -1.37033,-0.76726 3.13819,5.43657 1.18536,4.55999 z" />
  <path
     style="fill:#ee7f7f;fill-opacity:1;stroke-width:0.75"
     id="path20"
     d="m 262.41768,404.15921 c -0.51691,-12.48225 -0.68052,-24.98922 -0.2594,-37.47647 0.46314,-4.89275 1.19635,-5.69667 -9.70703,-6.37691 -1.23787,-0.0772 0.15558,2.47595 0.20156,3.71538 0.0734,1.97665 0.11368,3.9544 0.1563,5.93195 0.18336,8.50964 0.1426,7.79124 0.18498,16.50627 7.11115,0.90505 -3.19684,8.79882 -0.33586,11.19977 2.73456,2.29486 6.20864,4.04744 9.76023,4.40861 1.15318,0.11726 -0.24425,-2.3055 -0.3886,-3.45561 -0.89986,-7.1694 -0.77764,-5.942 -2.03652,-13.4882 -0.408,-2.10989 -1.73176,-9.89154 -2.8072,-12.24682 -0.34645,-0.75875 -0.97311,-1.57091 -1.78752,-1.75106 -4.0088,-0.88677 -8.48621,-3.00959 -12.24266,-1.35249 -2.51559,1.10972 -1.74159,5.21748 -2.50589,7.85861 -0.85669,2.96037 -1.57035,5.96028 -2.35552,8.94041 -1.93539,6.78979 -3.08965,13.78848 -4.94457,20.59701 -0.25716,0.94386 -0.50813,1.90418 -0.95117,2.77637 -0.083,0.1633 -0.70251,0.0772 -0.53098,0.14145 3.08939,1.15724 6.25011,2.11431 9.37517,3.17145 -0.44897,-3.87984 -0.49908,-7.79275 -0.49559,-11.69382 0.001,-1.29522 -0.13881,-3.5379 0.24719,-4.95739 -11.29124,-5.93573 -10.39226,-7.73071 -9.71475,-2.1004 0.0226,0.18766 -0.10585,0.47743 0.0624,0.56359 3.3197,1.70019 6.77726,3.11657 10.16589,4.67485 0,0 -9.879,-5.41734 -9.879,-5.41734 v 0 c 3.29751,1.84923 6.55224,3.77688 9.89252,5.54768 0.14764,0.0783 -0.20883,-0.27296 -0.24877,-0.43522 -0.0976,-0.39628 -0.11343,-0.80844 -0.15732,-1.21418 -0.0399,-0.36879 0.21439,-0.90273 -0.094,-1.10885 -3.19907,-2.13805 -6.70212,-3.78192 -10.05317,-5.67288 0.21626,1.73681 0.18875,3.52084 0.2171,5.26182 0.0636,3.90353 0.10352,7.80751 0.19118,11.71066 3.34734,2.52257 6.50493,5.31891 10.04203,7.56768 0.2809,0.17859 0.43177,-0.52896 0.52796,-0.84763 0.29707,-0.98416 0.44073,-2.00843 0.63862,-3.01723 1.36554,-6.96133 2.59197,-13.95434 4.40682,-20.82029 0.82616,-2.92943 1.51905,-5.89976 2.47848,-8.78829 0.82227,-2.47557 3.55218,-4.76925 2.86005,-7.2843 -0.95315,-3.46352 -5.09211,-5.12937 -7.09659,-8.11038 -0.52374,-0.7789 2.00656,0.48913 2.50623,1.2837 1.27341,2.025 2.72298,10.41908 3.09078,12.23572 0.83428,5.50262 1.34282,7.72554 1.55609,13.11233 0.0451,1.13843 -0.95629,2.65782 -0.10614,3.4163 12.20999,10.89328 9.85902,7.47949 9.6864,1.54696 -0.0748,-2.5689 -0.0383,-5.13982 -0.0574,-7.70973 0.036,-7.3632 0.0576,-14.73119 0.34128,-22.09043 0.0452,-1.17106 1.04838,-2.69987 0.20156,-3.50998 -2.76032,-2.6407 -6.30989,-4.46914 -9.90168,-5.76978 -0.7093,-0.25684 0.12976,1.50315 0.19465,2.25472 0.40427,12.39934 0.28037,24.81848 -0.2594,37.21213 z" />
  <path
     style="fill:#ee7f7f;fill-opacity:1;stroke-width:0.75"
     id="path21"
     d="m 254.68408,426.72317 c -0.14486,-1.31547 -0.22974,-2.63895 -0.4346,-3.94643 -0.87328,-5.57353 -1.87839,-9.57755 -3.24846,-15.21021 -1.86216,-7.65578 -3.88552,-15.27037 -5.90054,-22.88682 -1.02815,-4.47703 -0.82891,-6.1921 -10.19733,-5.4359 -1.41914,0.11455 0.73779,2.75056 1.07269,4.13437 1.16899,4.83018 2.25702,9.6476 2.98676,14.56225 -0.11513,0.65522 0.18826,1.56842 -0.34538,1.96566 -0.36657,0.27288 -1.22518,-1.26062 -0.79027,-1.12028 2.58749,0.83494 4.76097,3.50757 7.46993,3.27571 1.49121,-0.12764 -1.69867,-2.46466 -2.548,-3.69699 0,0 -9.74481,-4.28004 -9.74481,-4.28004 v 0 c 4.1844,6.9221 2.5013,5.32459 13.67763,11.46157 0.51108,0.28064 1.35279,-0.0351 1.66844,-0.52531 0.43209,-0.67109 0.13723,-1.59042 0.20584,-2.38562 -0.86476,-4.89876 -2.01795,-9.72374 -2.94876,-14.61046 -0.2475,-1.29936 0.2713,-3.0112 -0.70346,-3.90531 -2.92349,-2.68156 -6.56009,-4.56346 -10.21387,-6.10861 -0.73559,-0.31107 0.64002,1.4635 0.96003,2.19525 2.52897,7.58017 4.63363,15.23049 6.38308,23.0329 1.15619,5.15652 2.06395,9.55934 2.6119,14.74034 0.13057,1.23457 0.11951,2.48004 0.17926,3.72006 z" />
  <path
     style="fill:#ee7f7f;fill-opacity:1;stroke-width:0.75"
     id="path22"
     d="m 262.75964,437.97869 c -5.09548,-4.03839 -9.41308,-8.89391 -13.69218,-13.75558 -2.23991,-2.54486 -1.52749,-1.53881 -2.55519,-3.08145 -3.15859,-1.16877 -6.17078,-2.85843 -9.47578,-3.50632 -0.86238,-0.16906 1.17096,1.31125 1.73139,1.98814 2.77715,3.35422 5.37134,6.84871 8.17517,10.18371 1.54597,1.93587 3.12624,3.84317 4.67464,5.77704 0,0 10.11139,4.31727 10.11139,4.31727 v 0 c -1.58161,-1.96068 -3.23248,-3.86193 -4.77474,-5.85448 -2.12831,-2.45848 -4.17994,-4.9428 -6.15196,-7.52936 -0.66051,-0.86634 -1.31457,-1.73756 -1.97241,-2.60592 -0.49977,-0.65969 -0.7818,-1.56767 -1.50039,-1.97825 -3.54661,-2.0264 -7.39272,-3.47659 -11.08908,-5.21488 1.75179,2.13711 -0.34877,-0.38241 3.1048,3.40883 4.27917,4.69756 8.36018,9.57822 13.15106,13.78246 z" />
  <path
     style="fill:#ee7f7f;fill-opacity:1;stroke-width:0.75"
     id="path23"
     d="m 293.36654,448.60485 c 0.35566,-8.72576 0.87776,-17.42432 1.92193,-26.09734 0.1222,-0.62689 0.93554,-1.59042 0.36661,-1.88066 -3.17376,-1.61912 -6.65617,-3.29517 -10.21587,-3.14401 -1.23073,0.0523 -0.51735,2.40876 -0.78511,3.61115 -1.03345,4.64081 -2.25386,9.2143 -3.49973,13.80172 -0.36177,1.20173 -0.69208,2.41339 -1.08532,3.6052 -1.68023,5.09237 -4.85567,2.72405 8.86795,6.65855 0.55273,0.15846 0.10848,-1.14525 0.18794,-1.71474 0.11096,-0.79522 0.25543,-1.58541 0.38314,-2.37813 0.77878,-5.42312 1.57456,-10.83835 2.496,-16.23927 0,0 -9.52729,-5.05805 -9.52729,-5.05805 v 0 c -0.90932,5.3789 -1.76378,10.76303 -2.64605,16.14629 -0.15686,0.78045 -0.30344,1.56302 -0.47058,2.34132 -0.13095,0.60981 -0.90047,1.42056 -0.4236,1.82257 10.11618,8.52841 9.09013,9.31004 10.56887,3.5611 0.31636,-1.22997 0.64741,-2.45611 0.97113,-3.68417 1.20417,-4.58191 2.40022,-9.16944 3.64449,-13.74043 0.3193,-1.173 1.74956,-2.5408 1.00882,-3.50474 -2.38051,-3.09782 -5.82303,-5.31726 -9.2415,-7.20865 -0.59518,-0.32931 -0.0692,1.35865 -0.10388,2.03798 -0.75419,8.62116 -1.30497,17.26355 -2.25453,25.86169 z" />
  <path
     style="fill:#ee7f7f;fill-opacity:1;stroke-width:0.75"
     id="path24"
     d="m 287.80369,419.63987 c 2.76441,7.83916 4.47148,15.9853 7.03723,23.88415 1.74969,4.80621 2.8977,10.02119 6.1977,14.07614 0.5429,0.66708 1.05111,1.42253 1.79593,1.85261 3.66225,2.11468 7.5486,3.81502 11.32289,5.72253 0.69416,-0.74616 1.53033,-1.38189 2.08245,-2.2385 1.57661,-2.44607 3.3406,-7.60476 4.14935,-10.04334 2.862,-8.62957 5.0204,-17.43468 7.14819,-26.2652 1.53783,-6.62704 2.88569,-13.29649 4.39635,-19.92954 0.58824,-2.58285 1.08454,-5.19187 1.83702,-7.73174 0.44979,-1.51823 0.89938,-3.08332 1.76074,-4.41201 0.30701,-0.47359 2.02654,-0.39279 1.54644,-0.68954 -2.56038,-1.58256 -5.54946,-2.33317 -8.3242,-3.49975 0.53287,1.18431 1.17321,2.3259 1.5986,3.55292 1.75673,5.06717 2.33879,10.48697 3.20313,15.74722 0.79681,4.84929 0.80734,4.72741 1.71089,9.35069 1.33834,5.19193 1.43954,10.8153 3.71292,15.73456 3.47456,1.62837 6.63246,4.29291 10.4237,4.88511 1.07154,0.16737 0.72017,-2.05016 0.97139,-3.10519 0.41679,-1.75037 2.07973,-11.09306 2.28608,-12.18857 1.05953,-5.62491 2.08886,-10.69708 3.21203,-16.3232 2.22132,-9.55105 3.95179,-19.96281 7.72779,-29.06504 1.40075,-3.37656 0.72024,-3.39223 2.43159,-2.30058 -2.85716,-0.56297 -6.16554,-3.32957 -8.57146,-1.6889 -1.94135,1.32386 0.58703,4.6644 0.77315,7.00679 0.88726,11.16608 0.96899,22.41394 1.17022,33.60799 0.0859,1.95886 0.17185,3.91772 0.25778,5.87658 0,0 9.30488,4.6706 9.30488,4.6706 v 0 c -0.15193,-1.9799 -0.30387,-3.95979 -0.45581,-5.93969 -0.32236,-8.26889 -0.67078,-16.53696 -0.90355,-24.80905 -0.0828,-2.94151 -0.11465,-5.88439 -0.2096,-8.82554 -0.0744,-2.30491 0.93666,-4.96442 -0.29844,-6.91191 -2.48156,-3.91287 -6.75006,-6.34915 -10.12509,-9.52373 -0.41704,0.21313 -0.9917,0.24945 -1.25114,0.63938 -0.94795,1.42476 -2.71408,7.95864 -2.90842,8.65424 -2.20454,7.89034 -4.1613,15.85632 -5.74955,23.8942 -1.61179,7.64456 -3.11411,15.33326 -4.91186,22.93715 -0.39854,1.68571 -0.81665,3.36839 -1.31343,5.02781 -0.23642,0.78968 -1.47601,1.737 -0.88325,2.30981 2.5902,2.50304 6.11813,3.80336 9.1772,5.70504 -0.25777,-0.37958 -0.57319,-0.72585 -0.77331,-1.13874 -0.54723,-1.129 -1.08456,-3.21762 -1.35405,-4.35846 -0.79392,-3.36099 -1.35846,-6.77646 -2.16576,-10.13481 -0.9364,-4.33089 -1.09471,-4.8483 -1.86961,-9.37362 -1.12783,-6.58637 -1.78889,-13.31186 -4.07681,-19.63741 -3.71347,-2.23243 -7.1339,-5.04758 -11.1404,-6.69728 -0.65026,-0.26775 -1.19131,0.85971 -1.48473,1.4988 -0.68821,1.49898 -1.00455,3.14555 -1.38449,4.7506 -2.18264,9.22052 -3.4372,18.65564 -5.86727,27.82419 -2.41624,9.11805 -2.54334,10.07873 -5.26194,18.63543 -1.55769,4.90277 -3.70904,12.29677 -6.83295,16.55499 -0.40757,0.55557 -1.05798,0.88304 -1.58698,1.32456 2.53666,1.6942 4.98557,3.52778 7.60998,5.0826 0.74228,0.43977 -1.34252,-1.09204 -1.93417,-1.71998 -0.69785,-0.74064 -1.37146,-1.5161 -1.92158,-2.3722 -2.24651,-3.496 -3.20357,-7.64119 -4.63828,-11.48242 -0.48504,-1.44468 -1.01918,-2.87378 -1.45511,-4.33402 -1.89987,-6.36395 -3.16667,-12.91031 -5.14542,-19.25382 z" />
  <path
     style="fill:#ee7f7f;fill-opacity:1;stroke-width:0.75"
     id="path25"
     d="m 365.50597,447.41297 c 0.32899,-0.23929 0.7464,-0.38982 0.98698,-0.71786 1.99785,-2.72425 2.384,-7.99347 2.58415,-11.08785 0.26439,-4.08742 0.13865,-10.81784 0.11045,-14.82642 -0.0179,-1.12995 -0.18276,-11.26163 -0.19837,-13.10063 -0.008,-0.9681 0.77403,-2.31204 0.008,-2.90441 -2.90957,-2.25073 -6.26868,-4.66637 -9.94535,-4.78254 -1.49739,-0.0473 -0.33406,2.98237 -0.64473,4.44795 -0.47718,2.25101 -1.1437,4.45769 -1.71555,6.68653 -1.91273,6.09017 -2.6416,8.682 -4.84357,14.63464 -0.72319,1.955 -1.39738,3.93646 -2.30325,5.8138 -0.52135,1.08045 -0.91929,2.42048 -1.9589,3.01914 -0.49298,0.28388 -1.79439,-1.25804 -1.23055,-1.18251 2.75736,0.36936 5.38502,1.3998 8.07753,2.0997 -0.41644,-1.94731 -0.91214,-3.87935 -1.24932,-5.84193 -0.50684,-2.95015 -1.54237,-11.6964 -1.90266,-14.61216 -0.73055,-5.91222 -1.43703,-11.82592 -2.24041,-17.72865 -0.33981,-1.19503 -0.47925,-2.46626 -1.01945,-3.58507 -0.3135,-0.64932 -0.8029,-1.32164 -1.47532,-1.58194 -4.01657,-1.55485 -8.05733,-4.00823 -12.35792,-3.77304 -2.01051,0.10995 -2.64593,3.04124 -3.84454,4.65913 -3.74249,5.05162 -7.35428,10.99108 -10.69396,16.25809 -4.32259,7.01391 -6.53764,10.57522 -10.74623,17.52762 -1.43777,2.37514 -2.77676,4.81155 -4.28681,7.1414 -1.11177,1.71534 -2.08145,3.58594 -3.57232,4.9844 -0.70013,0.65672 -3.51481,0.37583 -2.72729,0.92472 2.16873,1.51159 5.03169,1.62332 7.54755,2.43498 -0.62685,-2.08298 -1.43099,-4.12066 -1.88056,-6.24895 -1.32007,-6.24929 -1.90562,-13.93981 -2.29014,-20.23296 -0.58389,-9.55611 -0.67181,-19.08118 -0.4136,-28.64496 0.11643,-0.78093 0.4454,-6.73899 2.08489,-8.01932 0.40264,-0.31444 1.93819,0.6461 1.45955,0.46751 -2.42405,-0.90439 -5.06856,-3.95991 -7.29705,-2.64546 -1.71876,1.0138 2.0716,3.41594 2.97,5.19774 1.18802,2.35623 2.18855,4.8024 3.28282,7.2036 3.44678,8.42607 6.27138,17.08284 9.34592,25.64553 0.93147,2.59422 3.38348,9.4263 4.83357,12.18699 0.53228,1.01336 1.31831,1.87161 1.97747,2.8074 3.76331,1.71434 7.17956,4.68888 11.28994,5.14299 1.34393,0.14848 1.28038,-2.40889 1.62639,-3.71597 0.51967,-1.96307 0.71506,-4.00048 0.95026,-6.0175 0.91587,-7.85409 0.91372,-15.75048 0.98221,-23.64336 0.0829,-7.99113 1.25756,-11.89282 -11.67677,-11.46075 -1.59911,0.0534 -1.60995,2.76582 -2.38306,4.16664 -3.77163,7.03542 -1.86684,3.53412 -5.71402,10.5041 6.52755,1.6186 -6.65798,5.16252 -4.42503,6.57347 2.51894,1.59167 5.98243,3.49085 8.66542,2.19469 1.8277,-0.88297 -0.54855,-4.02565 -0.68309,-6.05099 -0.31471,-4.73756 -0.16757,-8.97255 -0.10279,-13.69878 0.1007,-1.33668 0.16324,-2.67679 0.30211,-4.01006 0.37238,-3.57539 15.85132,-7.46119 -10.20972,-3.00432 -1.45088,0.24813 -0.49118,2.90282 -0.76484,4.3491 -1.03795,5.4852 -0.5714,3.6115 -2.14046,8.28314 -4.89483,-0.78063 4.49515,3.21087 7.06703,3.1109 1.24874,-0.0485 -1.0347,-2.28053 -1.42463,-3.46783 -1.19459,-3.63743 -1.69445,-7.38928 -1.99433,-11.18198 0.19572,-1.76525 0.41104,-3.7043 2.09665,-4.70945 0.36686,-0.21876 0.77538,-0.49522 1.20003,-0.44932 0.47054,0.0508 1.65526,0.91647 1.22851,0.71183 -2.65168,-1.27156 -5.27104,-2.60943 -7.90656,-3.91414 2.16671,2.8235 1.16791,1.33709 2.98688,4.46559 0,0 9.95515,4.45176 9.95515,4.45176 v 0 c -1.73213,-3.26007 -0.79995,-1.69088 -2.78755,-4.7129 -3.68426,-2.35051 -7.23925,-4.91714 -11.05277,-7.05156 -0.49312,-0.27599 -1.14166,-0.20497 -1.69329,-0.0824 -0.51746,0.11502 -0.97595,0.44028 -1.39242,0.76822 -1.7988,1.41639 -2.12696,3.54828 -2.30497,5.69544 0.33695,3.88673 0.91097,7.68599 1.92428,11.46503 0.32765,1.22196 0.20635,2.76839 1.14256,3.6193 3.27542,2.97699 7.08334,5.37959 11.00864,7.42481 0.49713,0.25902 0.91349,-0.64998 1.37023,-0.97497 1.7849,-6.09063 0.49231,-1.35414 2.10653,-8.42193 0.32334,-1.41569 1.86627,-3.05297 1.02243,-4.23477 -2.33705,-3.27301 -6.26137,-5.04939 -9.42483,-7.53271 -0.18205,-0.14292 0.44992,0.27666 0.47467,0.50679 0.15007,1.39521 0.0217,2.80643 0.0326,4.20965 -0.0168,4.05497 -0.0563,9.71652 -0.005,13.73327 0.0256,2.02509 -1.07866,4.45983 0.14445,6.07402 10.251,13.52882 10.2522,8.77295 14.60557,1.04604 1.53213,-2.77681 4.17535,-7.6585 5.86163,-10.351 0.79949,-1.27655 3.26464,-2.38866 2.56304,-3.72152 -1.6255,-3.08806 -5.18264,-4.70367 -8.04713,-6.69692 -2.15991,-1.50298 12.67681,14.84656 1.36024,7.77608 1.4e-4,7.81979 0.0285,15.59312 -1.15876,23.34841 -0.28883,1.88667 -0.62789,3.77428 -1.16046,5.60713 -0.26852,0.92406 -1.824,1.85715 -1.22801,2.61266 1.94248,2.46242 5.08739,3.66954 7.63107,5.50431 -0.80501,-0.90456 -1.78192,-1.68147 -2.41503,-2.71367 -1.54317,-2.51597 -4.39803,-9.94607 -5.28512,-12.30196 -3.20019,-8.49887 -5.95823,-17.15792 -9.18314,-25.64801 -0.99183,-2.38282 -1.92495,-4.79094 -2.97546,-7.14846 -0.7887,-1.76997 -1.12593,-3.90408 -2.53995,-5.229 -3.43991,-3.22315 -7.48687,-5.79708 -11.62913,-8.04728 -0.60084,-0.32639 -1.50688,0.14592 -1.93588,0.67837 -1.41728,1.759 -1.46824,7.434 -1.58706,8.73861 0.0264,9.64754 0.29378,19.27964 0.77275,28.91687 0.31252,6.28801 0.7113,13.78948 1.60346,20.08926 0.30529,2.15577 0.83988,4.27279 1.25982,6.40919 3.81826,2.61715 7.21839,5.98556 11.45478,7.85148 0.94071,0.41433 1.92741,-0.88266 2.59743,-1.6622 1.34243,-1.56184 2.26335,-3.44317 3.31347,-5.21481 1.41319,-2.3842 2.6875,-4.84835 4.07382,-7.24827 4.47039,-7.73884 5.82882,-9.80058 10.62407,-17.55611 3.95219,-5.87861 6.73003,-10.4101 11.25345,-15.74518 1.22728,-1.4475 4.50912,-2.23099 3.99379,-4.05744 -0.84732,-3.00316 -4.77005,-4.0432 -6.91799,-6.30668 -1.28769,-1.35695 8.94335,5.4511 3.22358,4.59385 0.99551,5.94157 1.85526,11.89677 2.60836,17.87466 0.61067,4.84727 1.03937,9.71643 1.66012,14.56242 0.2495,1.94775 0.58826,3.88302 0.8824,5.82454 3.4725,3.08847 6.68258,6.50007 10.41753,9.26541 1.70495,1.26233 2.69508,-1.70904 3.47033,-3.5959 2.75494,-6.70523 4.60383,-13.77017 7.10202,-20.56714 0.70479,-2.18889 1.44916,-4.36544 2.11438,-6.56668 0.39621,-1.31107 1.98048,-2.94506 1.06905,-3.96741 -2.46544,-2.76541 -6.02761,-4.61913 -9.59988,-5.60137 -0.99551,-0.27372 0.31768,2.0423 0.39918,3.07153 0.34158,4.31411 0.37875,8.90455 0.48007,13.20675 -0.0184,4.69053 0.0807,9.83057 -0.37797,14.52503 -0.2344,2.39895 -0.83632,7.86693 -2.68393,9.97932 -0.25599,0.29268 -0.66015,0.41106 -0.99023,0.61659 z" />
  <path
     style="fill:#ee7f7f;fill-opacity:1;stroke-width:0.75"
     id="path26"
     d="m 308.52107,451.18664 c 0.53243,-0.89141 1.1578,-1.7335 1.59728,-2.67421 3.07323,-6.57836 4.60973,-14.03364 6.1801,-21.05708 1.17695,-5.26384 3.41194,-16.48656 4.46721,-21.71682 2.13601,-9.6672 4.52991,-19.28777 7.581,-28.71128 0.67055,-2.07101 1.32698,-4.15176 2.1584,-6.16358 1.6811,-4.06775 1.20004,-4.32173 2.28284,-2.47346 -3.10436,-0.71961 -6.50615,-3.6675 -9.31307,-2.15883 -2.1603,1.16114 -0.17565,4.90292 -0.34456,7.34967 -0.96027,13.91013 -2.53621,27.79267 -3.84633,41.67307 -0.58959,6.96067 -1.32074,13.91178 -1.82799,20.87957 -0.10247,1.4075 -0.41954,5.33891 -0.15083,7.01495 0.10812,0.67442 0.46051,1.2861 0.69078,1.92915 3.65161,1.74339 6.94703,4.67244 10.95485,5.23019 1.29831,0.18068 1.45206,-2.2103 1.90426,-3.44065 0.74196,-2.0187 1.20353,-4.13363 1.65266,-6.23694 1.80274,-8.4424 2.64769,-17.09875 3.68211,-25.65707 0.26959,-2.28462 0.44431,-4.58244 0.80876,-6.85386 0.55119,-3.43526 5.22395,-11.37104 -8.70799,-5.97845 -2.11293,0.81783 0.23379,4.53588 0.0827,6.79653 -0.5004,7.48925 -1.9797,14.70107 -3.26794,22.08048 -1.91084,9.26635 -3.73199,18.5493 -5.46986,27.8493 -0.48701,2.60616 -0.89101,5.68185 -1.61468,8.30908 3.62887,0.86874 7.2713,3.52984 10.8866,2.60623 2.02164,-0.51648 1.37903,-3.93874 2.05551,-5.9126 0.98989,-2.88831 1.90821,-5.80151 2.94358,-8.67382 3.65099,-10.12852 7.79183,-20.07592 11.87812,-30.03331 1.10725,-2.66758 2.23324,-5.32746 3.32177,-8.00272 0.80873,-1.9876 3.2239,-7.0625 3.18485,-9.90298 -0.009,-0.62596 -0.21873,-1.46685 -0.80007,-1.69911 -4.03851,-1.6135 -8.19128,-3.88958 -12.53228,-3.62752 -2.14622,0.12956 -2.97772,3.10247 -4.46659,4.65371 -6.22458,6.96536 -12.18487,14.16548 -18.07358,21.4155 -0.37327,0.45956 -5.70249,7.62315 -7.54237,8.62151 -0.47808,0.25942 -1.04691,-0.29564 -1.57038,-0.44345 2.83274,0.81415 5.7088,3.39452 8.49822,2.44246 1.64877,-0.56275 -0.34122,-3.47082 -0.38238,-5.2125 -0.0473,-1.99829 0.0268,-3.99861 0.1175,-5.9954 0.0789,-1.73664 0.20813,-3.47183 0.39123,-5.2006 0.0961,-0.90764 1.17221,-2.14916 0.44569,-2.70165 -2.9212,-2.22146 -6.67618,-3.04991 -10.01428,-4.57486 -0.77118,6.7116 -1.66209,13.40645 -2.5357,20.10508 -0.63127,4.84044 -1.44628,8.75956 -0.88556,13.59958 0.14623,1.26216 0.70051,2.44274 1.05076,3.66412 3.76536,2.04636 7.06774,5.44148 11.29609,6.13909 1.70641,0.28154 2.60096,-2.30866 3.66716,-3.67038 3.32306,-4.24408 6.58029,-10.5163 9.01773,-15.14038 0.96906,-1.83843 6.99021,-13.7712 8.17964,-16.12495 0.86627,-1.11794 1.49155,-2.47395 2.59882,-3.35383 0.31728,-0.25213 1.54612,0.48697 1.15876,0.36789 -3.11059,-0.95626 -6.11776,-3.40996 -9.3285,-2.87944 -1.50124,0.24805 -0.33054,3.02853 -0.61748,4.52283 -0.87166,4.53933 -1.35148,5.54469 -2.75868,9.75941 -0.41648,0.58723 -1.84423,1.35607 -1.24944,1.76168 2.65165,1.80829 5.83119,4.17765 8.96893,3.50261 1.73165,-0.37254 -0.72816,-3.47154 -0.93821,-5.2303 -0.81376,-6.81384 -0.77347,-13.76168 -1.08922,-20.61017 -0.26357,-1.42311 -0.30916,-2.90447 -0.79071,-4.26932 -0.22522,-0.63836 -0.62544,-1.38665 -1.27365,-1.58175 -3.94704,-1.18795 -8.11734,-3.43093 -12.12077,-2.44962 -2.19858,0.53891 -2.01524,4.05647 -2.91274,6.13462 -2.16908,5.02248 -4.1342,10.60369 -6.01636,15.73518 -1.72304,5.09955 -2.6127,7.05516 -3.57673,11.9761 -0.16189,0.82637 -0.89219,1.95545 -0.26089,2.51273 10.44367,9.21913 10.0366,7.63926 11.39295,-0.26846 0,0 -9.52461,-5.08701 -9.52461,-5.08701 v 0 c -1.44271,6.5244 -2.89545,6.29637 7.87556,10.33843 0.78923,0.29618 -0.25681,-1.68202 -0.1863,-2.52204 0.1415,-1.68589 0.40561,-3.36836 0.81842,-5.00905 0.60362,-2.3991 1.48227,-4.7205 2.22341,-7.08075 2.12058,-5.77081 3.48727,-9.95871 6.19972,-15.48403 0.94688,-1.92882 3.83369,-3.55956 3.18081,-5.60668 -1.04724,-3.28366 -5.04147,-4.71881 -7.30328,-7.31946 -1.34517,-1.54669 10.80706,7.21418 3.0459,5.3421 0.43614,6.86059 0.62438,13.71721 0.90842,20.58518 0.0742,1.79291 -0.96949,4.05479 0.24277,5.37783 9.62463,10.5043 9.18809,9.58084 11.67083,4.35384 1.26786,-4.07293 1.81381,-5.61272 2.84665,-9.87963 0.36758,-1.5186 1.82596,-3.27724 0.97174,-4.58552 -0.55811,-0.85478 -8.20077,-11.18711 -10.76448,-7.79637 -0.8718,1.15306 -1.40828,2.52489 -2.11242,3.78734 -3.94809,8.33478 -7.78449,16.81513 -12.87537,24.54009 -1.39992,2.12425 -2.87735,4.2188 -4.60431,6.08692 -0.96611,1.04509 -4.03237,1.29934 -3.4046,2.57664 1.29397,2.63276 4.78361,3.39707 7.17542,5.09561 -0.5007,-1.17529 -1.25568,-2.27236 -1.5021,-3.52587 -0.91697,-4.66454 -0.1074,-8.94012 0.50613,-13.59218 0.85413,-6.47649 1.85587,-12.96162 3.42222,-19.30887 -3.14361,-1.98634 -5.88812,-4.82894 -9.43082,-5.95902 -0.92527,-0.29515 -0.0739,1.94107 -0.12466,2.91095 -0.21949,4.19598 -0.45667,7.03087 -0.55649,11.29128 -0.0414,1.76718 -1.05631,3.87635 -0.0126,5.30297 2.6477,3.61897 6.83918,5.80125 10.25876,8.70187 0.57735,-0.17015 1.2765,-0.11703 1.73202,-0.51044 1.05004,-0.90683 1.77212,-2.13635 2.61172,-3.24088 1.46033,-1.92114 2.80965,-3.92558 4.2865,-5.83405 5.70598,-7.37362 11.75196,-14.52128 18.38659,-21.07946 7.2945,-6.41082 5.85599,-2.37099 -1.98801,-10.7771 -0.40563,-0.43469 1.30705,0.45068 1.45946,1.02536 0.31718,1.19597 0.0806,2.50229 -0.20459,3.70629 -0.57898,2.44456 -4.66719,12.85659 -5.27798,14.45417 -3.9543,10.01749 -8.03326,19.98073 -12.05016,29.97277 -1.12639,2.80191 -2.15769,5.6422 -3.32491,8.42735 -0.79662,1.90084 -3.49161,3.78522 -2.5647,5.62605 1.733,3.44177 6.02082,4.81104 9.03123,7.21656 -1.42267,0.0734 -0.70273,0.21477 -0.4236,-2.72574 0.16845,-1.77467 0.41473,-3.54125 0.65251,-5.30796 1.27055,-9.44028 2.92712,-18.82145 4.87037,-28.14662 1.0516,-5.43826 3.18958,-16.1293 4.03438,-21.82979 0.32746,-2.20961 1.99039,-4.83192 0.71153,-6.66335 -2.31732,-3.31862 -6.26592,-5.42378 -10.086,-6.76174 -3.18822,-1.11664 6.03352,16.6514 -0.82023,10.10107 -0.92745,8.48632 -1.75143,17.04952 -3.90008,25.34053 -0.50928,1.96518 -1.09739,3.92198 -1.90351,5.78516 -0.39575,0.91471 -2.29272,1.69908 -1.67194,2.47879 2.07397,2.60491 5.46274,3.80871 8.19411,5.71308 -0.33544,-0.53982 -0.83018,-1.00878 -1.00631,-1.61943 -0.44571,-1.54528 -0.31006,-5.83817 -0.27528,-7.07589 0.19857,-7.06679 0.76578,-14.12103 1.20948,-21.17412 0.84227,-10.60425 1.76525,-21.18787 2.99686,-31.75563 0.37836,-3.24648 0.81233,-6.48625 1.2151,-9.72981 0.29627,-2.38599 1.9591,-5.00926 0.88201,-7.15883 -1.97832,-3.94818 -6.1539,-6.33538 -9.23085,-9.50308 -0.29884,0.20347 -0.72187,0.29385 -0.89654,0.6104 -1.20534,2.18449 -2.88463,8.32573 -3.36423,10.00229 -2.73972,9.57751 -5.03719,19.26938 -7.24843,28.98049 -1.54351,7.485 -2.83148,14.1366 -4.68527,21.54394 -1.69246,6.76274 -3.49397,14.08026 -6.90423,20.25673 -0.44769,0.81083 -1.09103,1.49703 -1.63655,2.24555 z" />
  <path
     style="fill:#ee7f7f;fill-opacity:1;stroke-width:0.75"
     id="path27"
     d="m 285.53995,413.99155 c -0.89024,-10.00025 1.01466,-19.36737 3.10016,-29.08998 0.65326,-3.55742 1.74724,-7.02171 2.43208,-10.57246 0.13537,-0.70184 0.82279,-1.7213 0.2372,-2.13118 -3.23025,-2.26099 -6.7768,-4.39846 -10.6465,-5.15473 -1.05484,-0.20615 -1.16867,1.80579 -1.69528,2.74273 -0.65937,1.17314 -1.24013,2.38875 -1.86019,3.58313 -3.42179,7.21224 -6.36322,14.65404 -8.92211,22.21389 -2.00455,-3.41632 1.99734,3.54261 9.82653,3.03049 1.36949,-0.0896 0.56541,-2.68666 0.90006,-4.01764 0.79667,-3.16846 1.91521,-6.25421 2.62353,-9.44358 0.27866,-1.2547 0.38151,-2.54207 0.57225,-3.8131 0.46123,-9.41342 -2.28097,-7.81203 -12.18609,-13.14184 0,0 8.85336,6.77181 8.85336,6.77181 v 0 c -2.79747,-1.73263 -5.59494,-3.46527 -8.3924,-5.19791 0.34212,0.21211 0.7568,0.33737 1.02637,0.63632 0.31196,0.34598 0.50686,0.79216 0.65879,1.23255 0.59334,1.71985 0.46283,2.8335 0.52949,4.70521 -0.12024,1.24898 -0.12102,2.51528 -0.36072,3.74693 -0.32973,1.69431 -2.23989,7.8215 -2.72145,9.40629 -0.40351,1.32788 -1.99434,2.83862 -1.21023,3.98371 8.40719,12.27764 8.41107,11.59325 9.42127,7.32967 2.15489,-7.61633 5.26607,-14.97736 8.67371,-22.10776 0.65082,-1.13513 1.24195,-2.30664 1.95248,-3.40539 2.96739,-4.5887 5.13921,-2.35697 -6.84872,-8.09601 -0.64405,-0.30833 0.30909,1.41777 0.24097,2.12857 -0.11922,1.24396 -2.02325,10.10005 -2.1535,10.71952 -1.98399,9.52512 -4.23072,19.05816 -4.0395,28.85141 z" />
  <path
     style="fill:#ee7f7f;fill-opacity:1;stroke-width:0.75"
     id="path28"
     d="m 245.65428,407.34295 c -1.95818,-4.15207 -3.67522,-8.43419 -5.1008,-12.79945 -1.14018,-3.49138 -0.96145,-2.37196 -1.07241,-4.96703 0.34389,4.45507 0.14508,-1.90742 -8.63603,-2.78267 -1.05311,-0.10497 0.71829,1.99183 1.03175,3.00267 0.86829,2.80002 1.48827,5.66816 2.20571,8.50821 3.40402,1.37671 6.54682,3.90949 10.21205,4.13012 1.16934,0.0704 0.0375,-2.34303 0.0176,-3.51432 -0.12186,-7.17184 -0.8064,-14.32991 -1.35587,-21.47794 0,0 -9.39963,-4.69528 -9.39963,-4.69528 v 0 c 0.58722,7.0738 1.3016,14.12513 1.12209,21.23261 -0.0254,1.00797 -0.88,2.3198 -0.15534,3.0209 2.69294,2.60541 6.33051,4.01061 9.49577,6.01591 -0.23253,-0.70128 -0.49933,-1.39211 -0.69759,-2.10383 -1.18453,-4.25223 -4.36715,-24.15307 -13.73598,-16.27808 0.32863,2.91822 0.0705,1.69248 1.27078,5.37014 1.40442,4.30307 3.02219,8.53598 4.66337,12.75288 z" />
  <path
     style="fill:#ee7f7f;fill-opacity:1;stroke-width:0.75"
     id="path29"
     d="m 326.71171,437.98158 c -0.63998,-1.13497 -1.3457,-2.23531 -1.91994,-3.40492 -0.8935,-1.81984 -1.65664,-3.70083 -2.47867,-5.55405 -2.55248,-5.75439 -4.04055,-8.99526 -6.32777,-14.94324 -2.32986,-6.05883 -3.07692,-8.58737 -5.04128,-14.59872 -0.69798,-2.1872 -2.17004,-7.4064 -3.51588,-9.65826 -0.36001,-0.60238 -0.88752,-1.18817 -1.54708,-1.42781 -3.77271,-1.37075 -7.55789,-3.45815 -11.57009,-3.33812 -1.36477,0.0408 -1.20534,2.45534 -1.68251,3.73461 -0.60493,1.62182 -1.03879,3.3024 -1.55818,4.9536 -1.42155,6.20077 -3.5292,12.50196 -3.42714,18.9475 0.012,0.75677 -0.30176,1.8004 0.30732,2.24971 3.17106,2.33929 6.92601,3.76063 10.38901,5.64094 0.46691,-1.27455 1.0315,-2.51746 1.40072,-3.82367 1.05561,-3.73453 1.91703,-9.18522 2.59208,-12.87672 1.24301,-6.79738 2.45625,-13.59881 3.77498,-20.38186 0.35514,-1.69122 0.70446,-3.38367 1.06541,-5.07365 0.27039,-1.26591 0.46946,-2.55031 0.82858,-3.79396 0.0308,-0.10678 0.41545,-0.11698 0.30553,-0.13349 -3.50565,-0.52668 -7.34231,-2.9308 -10.54185,-1.40439 -2.20454,1.05172 -0.99867,4.78212 -1.53381,7.16533 -0.79244,3.52903 -1.63251,7.04719 -2.44877,10.57078 -2.88807,11.5449 -5.48608,23.15943 -8.25027,34.73374 -0.61318,2.56753 -1.17843,5.1486 -1.89722,7.68859 -0.26722,0.9443 -1.91222,2.26807 -1.05627,2.74816 3.11669,1.74811 6.94897,1.67052 10.42345,2.50578 3.82674,-14.47901 8.57831,-28.71261 13.95206,-42.68903 4.30276,-11.19093 2.66226,-7.84336 7.56835,-15.84318 6.55718,-0.0924 -5.19816,-2.67564 -7.21598,-1.2969 -2.1913,1.49728 -0.48175,5.29044 -0.90703,7.91014 -1.63418,10.06642 -4.31225,19.99769 -6.67801,29.90782 -0.43507,1.79175 -2.86323,11.95495 -3.59083,14.41167 -0.35035,1.18292 -0.6069,2.43654 -1.27172,3.47579 -0.14402,0.22513 -0.93783,-0.48361 -0.67568,-0.4316 11.04753,2.19184 9.2097,5.38237 8.35119,-4.54936 -0.60071,-10.88728 -0.53076,-21.79351 -0.42129,-32.69152 0,0 -9.12221,-4.6455 -9.12221,-4.6455 v 0 c 0.15508,10.9008 0.2727,21.80184 0.33347,32.70362 0.15843,10.16208 -1.47508,6.76297 10.07745,15.56637 0.31468,0.2398 0.73751,-0.42409 0.88454,-0.79138 0.47755,-1.19297 0.64838,-2.48739 0.92987,-3.74119 0.47768,-2.12769 0.89217,-4.26908 1.34728,-6.40171 0.58782,-2.7545 1.18767,-5.50642 1.78151,-8.25963 3.03882,-13.36941 1.35063,-6.07993 4.62177,-19.8916 0.78508,-3.31483 1.63188,-6.61569 2.3529,-9.94504 0.5632,-2.60063 2.60235,-5.41945 1.49886,-7.84077 -6.05839,-13.2935 -6.48304,-12.12501 -11.25007,-8.62236 -4.22282,9.03726 -2.25825,4.43522 -6.74214,16.46742 -5.20131,13.95732 -10.10986,28.01997 -15.37216,41.95167 2.8942,2.63459 5.21756,6.08414 8.68258,7.90375 0.9339,0.49042 0.21192,-2.10056 0.3876,-3.14066 0.44651,-2.64361 0.94612,-5.27843 1.47823,-7.90615 2.35956,-11.65249 5.10873,-23.22805 8.26416,-34.69078 0.97792,-3.43774 1.94476,-6.87865 2.93378,-10.31322 0.66758,-2.31834 3.01014,-4.73825 2.03597,-6.94536 -1.69609,-3.84275 -6.00676,-5.87307 -8.99613,-8.82385 -0.0905,-0.0893 0.30879,0.11137 0.29809,0.23809 -0.0819,0.9699 -1.54187,8.76569 -1.59224,9.04024 -1.15695,6.82703 -2.26768,13.65725 -3.62228,20.44905 -1.04213,5.22518 -1.43495,7.56461 -3.02547,12.43145 -0.28268,0.86499 -0.69166,1.68346 -1.0375,2.52519 2.86112,1.8986 5.45211,4.28653 8.58336,5.6958 0.66894,0.30108 -0.54317,-1.38209 -0.61978,-2.11165 -0.12558,-1.19588 -0.0664,-2.40791 0.0192,-3.60732 0.36867,-5.16758 1.68684,-10.20546 3.05796,-15.17812 0.55432,-1.58055 1.01956,-3.19521 1.66296,-4.74163 0.46538,-1.11856 2.31741,-2.22039 1.65593,-3.23539 -1.86867,-2.86733 -5.46787,-4.13679 -7.97722,-6.46415 -0.57123,-0.52981 1.61445,0.4114 2.10435,1.01721 1.48212,1.83278 3.3608,7.99987 3.96539,9.74236 1.88073,5.51654 3.09019,9.19924 5.17653,14.72717 3.22635,8.54847 2.69615,6.66111 5.97656,14.79738 0.73412,1.8208 1.37205,3.68004 2.13065,5.49078 0.4748,1.13331 1.04497,2.22426 1.56745,3.33638 z" />
  <path
     style="fill:#ee7f7f;fill-opacity:1;stroke-width:0.75"
     id="path30"
     d="m 320.18905,436.47229 c 0.29923,-1.59493 0.6457,-3.18173 0.89769,-4.7848 0.86541,-5.50534 1.49865,-11.04491 2.31003,-16.55848 1.50286,-10.21234 3.22647,-20.38434 4.96839,-30.55786 0.23903,-1.25453 2.23431,-12.07059 2.84002,-14.12288 0.28166,-0.95432 0.45293,-2.14516 1.2816,-2.69593 0.42709,-0.28387 1.28766,1.32148 0.77489,1.32906 -9.72567,0.14393 -8.7526,-5.32403 -6.26508,5.58936 2.7203,12.42468 3.4311,25.13907 5.08989,37.71417 1.0443,5.23836 2.05779,7.58077 11.51413,6.01725 1.52747,-0.25255 0.28849,-3.0837 0.37335,-4.62958 0.18034,-3.2848 0.37901,-11.4365 0.46262,-14.48236 0.0632,-1.31758 0.30524,-9.62637 0.87491,-11.79895 0.0938,-0.35778 1.21789,-0.55389 0.87232,-0.68577 -2.77765,-1.06009 -5.86249,-3.37251 -8.62474,-2.27292 -1.65608,0.65925 0.90897,3.44766 1.31187,5.184 0.54882,2.3652 1.02858,4.74591 1.54287,7.11886 1.61677,6.33937 1.92318,12.98594 3.7453,19.27988 0.26534,0.9165 1.44798,4.98583 3.08434,5.7312 3.71207,1.69087 7.66431,2.7951 11.49647,4.19265 0.6306,-0.98123 1.38332,-1.89397 1.89183,-2.94368 1.35264,-2.79226 2.56671,-7.21849 3.42291,-10.09873 1.44565,-4.86311 2.85854,-9.70497 4.53055,-14.49555 -3.42092,-0.2258 -7.35942,-2.50067 -10.26276,-0.6774 -2.46056,1.54521 -1.27422,5.67519 -2.1213,8.45448 -1.13373,3.71984 -2.47944,7.37269 -3.81555,11.02473 -3.73834,10.21801 -7.93038,20.25549 -12.23834,30.24246 -0.88859,1.55509 -1.77718,3.11019 -2.66576,4.66527 -0.28662,-0.37951 -1.33543,-1.14101 -0.85985,-1.13854 3.24485,0.0169 6.94438,2.95679 9.66237,1.18426 2.33352,-1.5218 0.7695,-5.51868 1.20366,-8.27053 1.80827,-11.46101 1.71638,-10.3303 4.09043,-21.98689 3.58394,-15.13411 7.67226,-30.2097 13.56361,-44.62456 1.77763,-3.79332 3.2775,-9.16653 7.10585,-11.49052 4.28656,1.44773 -5.24498,-3.45793 -8.20154,-4.39584 -0.73458,-0.23302 0.7809,1.3505 0.97501,2.09631 0.37637,1.44604 0.65888,2.93123 0.72208,4.42411 0.22833,5.394 -0.56681,10.69986 -1.14093,16.03994 -0.29882,2.6938 -0.62773,5.38444 -0.89645,8.08142 -0.20319,2.03939 -0.39076,4.08105 -0.51917,6.12651 -0.0733,1.16765 -0.14296,2.34026 -0.0857,3.50882 0.0253,0.5156 -0.13019,1.28219 0.33169,1.51272 11.48539,5.7324 9.61025,7.24492 12.08849,0.58632 1.27388,-4.70096 2.63878,-9.37859 3.87009,-14.09112 0.664,-2.54127 1.45971,-5.00175 1.09412,-7.64235 -3.62033,-1.15891 -7.06756,-3.72118 -10.86098,-3.47672 -1.50324,0.0969 -0.99869,2.84253 -1.47477,4.27169 -3.17104,9.51916 -6.27534,19.0652 -9.16626,28.67284 -0.41424,1.79621 -0.80935,3.59694 -1.24271,5.38864 -0.21694,0.8969 -0.42177,1.79897 -0.70795,2.67624 -0.0313,0.0958 -0.15288,0.13132 -0.22932,0.19699 3.40905,1.12173 6.64206,3.5292 10.22717,3.36518 1.30283,-0.0596 0.41775,-2.57473 0.62836,-3.8618 0.26411,-1.61403 0.53053,-3.22768 0.7958,-4.84152 0.92062,-4.77051 1.77487,-9.55795 2.9307,-14.27943 0.28333,-1.15741 0.91302,-4.46903 1.7924,-5.61051 -3.47398,-1.08468 -6.84296,-3.91429 -10.42193,-3.25404 -1.81218,0.33432 -0.71895,3.61743 -1.19606,5.39735 -0.73501,2.74206 -1.60294,5.4469 -2.43803,8.16016 -2.79983,9.09682 -5.90591,18.08742 -8.88077,27.12723 -2.36241,7.26986 -5.0139,9.07613 9.37591,8.06682 1.1653,-0.0817 0.92727,-2.15222 1.53005,-3.15286 0.33822,-0.56147 1.80099,-1.11175 1.27236,-1.49928 -2.8149,-2.06355 -6.30325,-2.99944 -9.45487,-4.49915 -0.10658,4.4739 -1.63154,8.83674 -2.76545,13.12606 0,0 9.16299,4.98168 9.16299,4.98168 v 0 c 1.31418,-4.63539 2.69041,-9.25052 4.01493,-13.88264 -3.47819,-1.7822 -6.6991,-4.19761 -10.43459,-5.34661 -0.67797,-0.20854 -0.81791,1.16162 -1.17095,1.77686 -0.578,1.00726 -2.27779,2.12864 -1.61893,3.08498 2.13492,3.0989 6.00537,4.56756 8.70041,7.19393 0.26009,0.25346 -0.70667,0.16787 -1.06,0.25181 0.40682,-1.76304 0.81365,-3.52609 1.22047,-5.28913 2.74578,-9.11328 5.7196,-18.1341 8.87576,-27.1148 0.93793,-2.6688 1.96299,-5.30667 2.88512,-7.98099 0.58385,-1.69327 2.55722,-3.58584 1.63202,-5.11948 -2.0257,-3.35789 -6.11207,-4.9151 -9.16811,-7.37265 0.14588,0.71267 -1.16423,5.575 -1.23747,5.91836 -1.01794,4.77181 -1.87485,9.57467 -2.88204,14.3487 -0.3081,1.58262 -0.58563,3.1715 -0.92431,4.74787 -0.26781,1.2465 -1.68353,2.71709 -0.89471,3.71873 11.14038,14.14613 8.83926,9.28056 9.67471,3.90716 0.2831,-1.82085 0.64411,-3.62873 0.96616,-5.4431 2.11783,-7.60234 4.42368,-14.79486 7.15004,-22.20725 0.75996,-2.06617 1.53638,-4.12688 2.36248,-6.16752 0.53419,-1.31956 2.51161,-2.72894 1.71727,-3.91032 -2.06953,-3.07794 -5.91108,-4.48174 -8.86661,-6.7226 0.20627,0.22072 0.56263,0.36532 0.61883,0.66214 0.39489,2.08581 -0.38213,4.67622 -0.83995,6.58049 -1.12466,4.67799 -2.50951,9.29314 -3.97857,13.87263 -2.774,6.06221 -2.57878,3.05101 7.40127,9.35002 0.43147,0.27234 -0.67001,-0.81803 -0.78204,-1.3158 -0.26511,-1.17797 -0.31379,-2.40023 -0.32601,-3.6076 -0.0529,-5.2222 0.51074,-9.02201 1.05062,-14.33168 0.36971,-2.84722 0.78232,-5.6892 1.10912,-8.54166 0.28291,-2.46938 0.64044,-4.93751 0.71979,-7.42178 0.19489,-6.10182 -2.22987,-16.32642 -12.43866,-12.8298 -3.78366,3.01506 -5.24441,7.99811 -6.94322,12.32838 -5.4274,14.73366 -9.15081,30.00152 -12.71444,45.27629 -5.34386,24.81229 0.33083,-1.76052 -4.55474,21.77112 -0.55887,2.69181 -2.67331,5.48342 -1.72728,8.06473 1.56075,4.25863 5.41272,7.31098 8.55948,10.57743 0.2886,0.29957 0.92413,-0.154 1.13878,-0.51031 0.94232,-1.5642 1.462,-3.34683 2.19299,-5.02024 3.96716,-10.15648 7.92388,-20.31628 11.91309,-30.46414 1.42242,-3.61842 2.91835,-7.20905 4.25709,-10.85926 0.99443,-2.7114 3.63129,-5.47224 2.7401,-8.2193 -1.30943,-4.03626 -5.65682,-6.3265 -8.48522,-9.48974 -1.46739,4.86588 -2.81811,9.7688 -4.32173,14.6234 -0.9463,3.05522 -2.04111,6.7675 -3.60049,9.63297 -0.47084,0.86521 -1.17223,1.58334 -1.75835,2.375 2.6211,2.00193 5.26428,3.97527 7.8633,6.00578 0.64696,0.50544 -1.52856,-0.76138 -2.00572,-1.42947 -1.73562,-2.43015 -2.59088,-6.69992 -3.17315,-9.3921 -0.99486,-4.59985 -1.61787,-9.27506 -2.61756,-13.87384 -0.42269,-2.33469 -0.84832,-4.66885 -1.26808,-7.00408 -0.31038,-1.72666 0.24569,-3.8726 -0.92235,-5.18157 -2.97951,-3.33902 -6.91189,-5.76245 -10.80795,-7.9641 -0.47046,-0.26585 -0.60996,0.93366 -0.68657,1.46859 -0.23077,1.6116 -0.15669,3.25234 -0.2224,4.87905 -0.0965,2.38952 -0.1762,4.77969 -0.26431,7.16954 -0.24478,5.26169 -0.33344,9.01678 -0.87912,14.17979 -0.15104,1.42909 -1.51964,3.14893 -0.61663,4.26682 2.41951,2.99524 6.36422,4.34073 9.44034,6.65656 0.83045,0.62519 -7.62898,-2.79962 -1.64425,-2.6497 -2.25333,-12.58968 -3.07295,-25.40253 -5.50461,-37.96989 -1.87788,-10.56396 0.0584,-7.27978 -11.69654,-16.97935 -0.40013,-0.33018 -1.22104,-0.10854 -1.5247,0.31207 -0.6315,0.87469 -0.71354,2.04243 -0.93714,3.09784 -1.00866,4.76081 -1.33923,9.65027 -2.35892,14.40764 -1.60846,10.18781 -3.28918,20.36312 -5.0368,30.52812 -0.21339,1.24118 -2.43451,13.97127 -2.90861,16.16504 -0.33324,1.54198 -0.8042,3.05095 -1.2063,4.57643 z" />
  <path
     style="fill:#ee7f7f;fill-opacity:1;stroke-width:0.75"
     id="path31"
     d="m 355.11276,467.49166 c 2.08944,-12.3165 6.09141,-24.23759 9.84572,-36.1266 0.67927,-2.03558 1.37202,-4.0667 2.0378,-6.10673 0.52083,-1.59584 1.04114,-3.19221 1.52191,-4.80057 0.27182,-0.90929 0.58061,-1.8142 0.73531,-2.75055 0.0496,-0.30025 0.14887,-0.7854 -0.13163,-0.90342 -11.41327,-4.8018 -8.77983,-6.74078 -12.79028,-1.8889 0,0 9.37188,5.65836 9.37188,5.65836 v 0 c 4.19347,-4.50877 1.84175,-0.79293 -7.01857,-7.9184 -0.25124,-0.20206 0.89747,-0.40003 0.9635,-0.0845 0.19522,0.93288 -0.18292,1.90207 -0.38839,2.83274 -0.36343,1.64608 -0.84363,3.26473 -1.31518,4.88316 -0.60379,2.07232 -1.27355,4.12486 -1.91033,6.18729 -2.20658,7.19824 -4.48871,14.36917 -6.65709,21.57904 -0.22584,0.75087 -2.97936,9.80713 -3.37,11.24922 -0.25454,0.93965 -0.432,1.8985 -0.648,2.84775 z" />
  <path
     style="fill:#ee7f7f;fill-opacity:1;stroke-width:0.75"
     id="path32"
     d="m 293.32114,443.72623 c -4.61257,-8.75094 -9.2721,-17.47914 -13.82519,-26.2613 -0.74452,-1.43607 -8.0349,-15.90798 -9.39565,-18.04275 -1.05719,-1.65853 -2.49911,-3.03777 -3.74866,-4.55666 -4.31396,-1.82094 -8.2703,-5.14255 -12.94186,-5.46283 -1.9227,-0.13182 -2.85744,2.66075 -3.85209,4.31145 -2.60357,4.32089 -4.40143,11.41082 -5.58285,16.10075 -1.84523,7.32516 -2.00671,9.04552 -3.22417,16.18575 -0.40175,3.48223 -0.77921,6.96259 -0.43843,10.45707 0,0 9.96762,4.84035 9.96762,4.84035 v 0 c -1.01381,-3.45542 -0.83484,-6.96944 -0.55927,-10.55055 1.00248,-7.06275 1.08944,-9.00006 2.95498,-16.1851 1.21768,-4.68981 3.05004,-11.18376 5.84885,-15.38119 0.90724,-1.3606 3.86252,-1.80814 3.52816,-3.40892 -0.49242,-2.3575 -3.51474,-3.29361 -5.27211,-4.94042 1.43407,1.5169 3.1073,2.83905 4.30222,4.5507 1.99717,2.86083 8.45004,15.66436 9.73564,18.17161 4.36089,8.50478 8.72004,17.01451 12.69974,25.70689 z" />
</svg>
